<?xml version="1.0" encoding="UTF-8"?>
<svg version="1.1" xmlns="http://www.w3.org/2000/svg" width="2000" height="2000">
<path d="M0 0 C599.94 0 1199.88 0 1818 0 C1818 192.39 1818 384.78 1818 583 C1218.06 583 618.12 583 0 583 C0 390.61 0 198.22 0 0 Z " fill="#0C0C2A" transform="translate(91,708)"/>
<path d="M0 0 C7.59 0 15.18 0 23 0 C32.71694026 23.26176608 42.08918881 46.66134674 51.43310547 70.07470703 C53.5356148 75.34272043 55.64266388 80.60891595 57.75 85.875 C58.34898509 87.37238513 58.94794616 88.86977987 59.546875 90.3671875 C60.41078296 92.52695739 61.29039007 94.68071958 62.203125 96.8203125 C63 99 63 99 63 102 C55.74 102 48.48 102 41 102 C38.36 95.4 35.72 88.8 33 82 C11.22 81.505 11.22 81.505 -11 81 C-11.33 82.32 -11.66 83.64 -12 85 C-12.51773988 86.37952517 -13.06218305 87.74923931 -13.62890625 89.109375 C-13.91064697 89.78967773 -14.1923877 90.46998047 -14.48266602 91.17089844 C-14.83901123 92.02200195 -15.19535645 92.87310547 -15.5625 93.75 C-16.696875 96.4725 -17.83125 99.195 -19 102 C-26.26 102 -33.52 102 -41 102 C-38.84579583 95.95165752 -36.60653281 89.9570524 -34.2109375 84 C-33.67713598 82.67053575 -33.14344738 81.34102614 -32.60986328 80.01147461 C-32.34111389 79.34236053 -32.0723645 78.67324646 -31.79547119 77.9838562 C-30.5711384 74.93044557 -29.35615299 71.87333072 -28.140625 68.81640625 C-22.99220909 55.88988405 -17.78012908 43.00007079 -12.38354492 30.17456055 C-9.48746245 23.25966693 -6.79443855 16.29500852 -4.25390625 9.2421875 C-3.03059666 6.07911285 -1.51667581 3.03335162 0 0 Z " fill="#FBFBFB" transform="translate(1438,933)"/>
<path d="M0 0 C2.75 2.125 2.75 2.125 4.875 4.4375 C5.803125 5.2728125 5.803125 5.2728125 6.75 6.125 C10.44263054 5.76532819 12.83603847 3.79270309 15.75 1.625 C21.82539994 -2.89450483 26.61805086 -3.12488222 34 -3.25 C34.82113281 -3.28738281 35.64226562 -3.32476563 36.48828125 -3.36328125 C44.02330115 -3.4707538 48.42471963 -0.77737886 53.9921875 4.08203125 C54.53101563 4.69433594 55.06984375 5.30664062 55.625 5.9375 C56.17929688 6.54207031 56.73359375 7.14664063 57.3046875 7.76953125 C61.42659899 14.48713295 61.01993256 22.23614345 60.9453125 29.84375 C60.9424826 30.94223267 60.93965271 32.04071533 60.93673706 33.17248535 C60.92560486 36.656771 60.90051298 40.14079296 60.875 43.625 C60.86496121 45.9973921 60.85583694 48.36978826 60.84765625 50.7421875 C60.82568829 56.53655885 60.79120648 62.33073482 60.75 68.125 C54.15 68.125 47.55 68.125 40.75 68.125 C40.72421875 64.87398437 40.6984375 61.62296875 40.671875 58.2734375 C40.63343454 55.11596105 40.58828062 51.95864679 40.54248047 48.80126953 C40.5142994 46.61124447 40.49307066 44.42111823 40.47900391 42.23095703 C40.45753523 39.07792473 40.41086325 35.92610515 40.359375 32.7734375 C40.35814636 31.79821136 40.35691772 30.82298523 40.35565186 29.81820679 C40.23007743 23.95616406 39.59846433 20.62213289 35.75 16.125 C32.81781006 13.82113647 29.59881128 13.64566195 25.91015625 13.7421875 C21.08752364 14.59683125 17.20076107 17.31693515 14.171875 21.09179688 C12.12507421 25.45811779 12.27081431 29.46956084 12.23828125 34.23828125 C12.21135445 35.69260811 12.21135445 35.69260811 12.18388367 37.17631531 C12.12983951 40.26333306 12.09590353 43.3501967 12.0625 46.4375 C12.02932176 48.53452662 11.99483163 50.63153293 11.95898438 52.72851562 C11.871654 57.86069855 11.81153438 62.99218386 11.75 68.125 C5.15 68.125 -1.45 68.125 -8.25 68.125 C-8.27578125 65.02996094 -8.3015625 61.93492188 -8.328125 58.74609375 C-8.36658509 55.73420281 -8.41173262 52.72248078 -8.45751953 49.71069336 C-8.48566962 47.62451296 -8.5069137 45.53822708 -8.52099609 43.4519043 C-8.54250802 40.44525385 -8.58920124 37.43986359 -8.640625 34.43359375 C-8.64185364 33.50727646 -8.64308228 32.58095917 -8.64434814 31.62657166 C-8.77871444 25.62747341 -9.76604257 22.04849246 -13.25 17.125 C-16.11579389 14.72392945 -17.85223351 14.1775352 -21.5625 13.6875 C-26.02415202 14.21684854 -29.74402219 15.24070073 -33.25 18.125 C-37.28497197 23.87936914 -37.84995746 28.28225785 -37.859375 35.21484375 C-37.87591125 36.15936905 -37.89244751 37.10389435 -37.90948486 38.07704163 C-37.95778711 41.07226174 -37.97929638 44.06697479 -38 47.0625 C-38.02817453 49.10223881 -38.05810402 51.14195418 -38.08984375 53.18164062 C-38.16682271 58.16298967 -38.20750756 63.14276185 -38.25 68.125 C-44.85 68.125 -51.45 68.125 -58.25 68.125 C-58.25 45.025 -58.25 21.925 -58.25 -1.875 C-52.64 -1.875 -47.03 -1.875 -41.25 -1.875 C-40.92 0.765 -40.59 3.405 -40.25 6.125 C-39.38375 5.361875 -38.5175 4.59875 -37.625 3.8125 C-27.06718927 -4.94034543 -12.01909852 -6.9340953 0 0 Z " fill="#F8F8F9" transform="translate(1249.25,966.875)"/>
<path d="M0 0 C0.80759766 -0.02835938 1.61519531 -0.05671875 2.44726562 -0.0859375 C11.45749397 -0.11497933 17.04564819 4.79775466 23.5625 10.5 C24.66658203 9.66855469 24.66658203 9.66855469 25.79296875 8.8203125 C26.76878906 8.09585938 27.74460937 7.37140625 28.75 6.625 C29.71292969 5.90570312 30.67585937 5.18640625 31.66796875 4.4453125 C37.29862913 0.66114398 41.74866935 0.13594357 48.375 0.125 C49.52838867 0.08826172 49.52838867 0.08826172 50.70507812 0.05078125 C58.60181794 0.01079776 64.82702357 3.09226508 70.5625 8.5 C76.17336976 15.77334969 75.84598909 25.33888214 75.7578125 34.09765625 C75.7549826 35.17252792 75.75215271 36.2473996 75.74923706 37.35484314 C75.73812274 40.75751302 75.71303447 44.15991089 75.6875 47.5625 C75.67745889 49.88215763 75.66833503 52.20181943 75.66015625 54.52148438 C75.63821208 60.18109295 75.60374306 65.8405005 75.5625 71.5 C69.2925 71.5 63.0225 71.5 56.5625 71.5 C56.52511719 68.5609375 56.48773437 65.621875 56.44921875 62.59375 C56.40292442 59.72746607 56.35171955 56.86130865 56.30004883 53.99511719 C56.2669236 52.0127744 56.23885356 50.03034011 56.21606445 48.04785156 C56.18228946 45.18775671 56.12996312 42.32849108 56.07421875 39.46875 C56.06782883 38.59134155 56.0614389 37.71393311 56.05485535 36.80993652 C55.89679714 30.10032358 54.92371844 24.27790404 50.4375 19 C46.39401619 16.89035627 43.03315673 16.85230768 38.5625 17.5 C32.5438196 19.65764014 30.00622649 23.33441027 26.5625 28.5 C26.2370031 30.53665226 26.2370031 30.53665226 26.24365234 32.7878418 C26.22378265 33.64850754 26.20391296 34.50917328 26.18344116 35.3959198 C26.17188995 36.32100845 26.16033875 37.24609711 26.1484375 38.19921875 C26.12907135 39.14940384 26.1097052 40.09958893 26.0897522 41.0785675 C26.02995088 44.1147869 25.98356871 47.15104419 25.9375 50.1875 C25.89932074 52.24545928 25.86026904 54.30340258 25.8203125 56.36132812 C25.72260586 61.40746911 25.64304151 66.45343885 25.5625 71.5 C19.2925 71.5 13.0225 71.5 6.5625 71.5 C6.51351562 68.40496094 6.46453125 65.30992188 6.4140625 62.12109375 C6.35998607 59.10924627 6.30270475 56.09747551 6.24511719 53.08569336 C6.20693617 50.99948896 6.17206467 48.91322118 6.140625 46.8269043 C6.09473773 43.820571 6.03678267 40.81467001 5.9765625 37.80859375 C5.96501129 36.88227646 5.95346008 35.95595917 5.94155884 35.00157166 C5.82464378 29.82131035 5.37748466 25.37488857 3.5625 20.5 C1.71103436 19.03195637 1.71103436 19.03195637 -0.4375 18.5 C-1.4275 18.17 -2.4175 17.84 -3.4375 17.5 C-9.36176449 16.89753242 -12.63684401 17.69269628 -17.67578125 20.8203125 C-21.33257336 24.30683269 -22.60097788 28.18979182 -22.86987305 33.12841797 C-22.91099733 34.9160638 -22.93665762 36.70411283 -22.94921875 38.4921875 C-22.96716995 39.43812775 -22.98512115 40.38406799 -23.00361633 41.3586731 C-23.05756637 44.36407079 -23.09156604 47.36931104 -23.125 50.375 C-23.15818657 52.41929267 -23.19267747 54.4635646 -23.22851562 56.5078125 C-23.31572703 61.50522908 -23.37592661 66.50193935 -23.4375 71.5 C-29.7075 71.5 -35.9775 71.5 -42.4375 71.5 C-42.4375 48.4 -42.4375 25.3 -42.4375 1.5 C-37.1575 1.5 -31.8775 1.5 -26.4375 1.5 C-26.4375 4.47 -26.4375 7.44 -26.4375 10.5 C-25.79683594 10.02949219 -25.15617188 9.55898438 -24.49609375 9.07421875 C-23.63113281 8.45160156 -22.76617188 7.82898438 -21.875 7.1875 C-21.02808594 6.57261719 -20.18117188 5.95773437 -19.30859375 5.32421875 C-12.82629681 1.20553484 -7.51971744 -0.02389108 0 0 Z " fill="#FBFBFB" transform="translate(798.4375,963.5)"/>
<path d="M0 0 C1.5161792 0.01643555 1.5161792 0.01643555 3.06298828 0.03320312 C14.34832587 0.36047246 22.51046567 3.51263376 30.71875 11.37890625 C33.69527622 14.78849264 35.78378471 18.44379752 37.625 22.5625 C37.99238281 23.3153125 38.35976563 24.068125 38.73828125 24.84375 C39.88806414 28.36907551 39.92553503 31.70821245 39.875 35.375 C39.86678223 36.09059082 39.85856445 36.80618164 39.85009766 37.54345703 C39.63498214 47.68164305 36.80996836 55.6127488 30.0625 63.35546875 C20.91176956 71.91228159 9.62868834 73.98666295 -2.44921875 73.7734375 C-14.12375709 73.14614887 -22.94520139 69.33811729 -31.125 61 C-37.33948232 53.39486429 -40.21429664 44.16093288 -39.7265625 34.40625 C-38.25940547 22.53857977 -32.76857275 14.39144225 -24.109375 6.38671875 C-16.4644761 1.28647906 -9.07795333 -0.13935787 0 0 Z " fill="#FAFAFA" transform="translate(704.375,963.4375)"/>
<path d="M0 0 C1.65 0 3.3 0 5 0 C5 39.27 5 78.54 5 119 C-3.25 119 -11.5 119 -20 119 C-20 96.56 -20 74.12 -20 51 C-20.66 51 -21.32 51 -22 51 C-22.39638672 51.88945313 -22.39638672 51.88945313 -22.80078125 52.796875 C-24.04370425 55.08029054 -25.30401646 56.47426723 -27.1875 58.25 C-29.69523724 60.68033794 -32.04696237 63.15505658 -34.3125 65.8125 C-37.02893181 68.9725549 -39.89416115 71.9007687 -42.875 74.8125 C-48.02359368 79.89002414 -52.52910199 85.31958369 -57 91 C-60.42501894 87.70625356 -63.35892168 84.36166229 -66.125 80.5 C-67.11886719 79.12328125 -67.11886719 79.12328125 -68.1328125 77.71875 C-69.05707031 76.37296875 -69.05707031 76.37296875 -70 75 C-70.59554687 74.1440625 -71.19109375 73.288125 -71.8046875 72.40625 C-73 70 -73 70 -72.94140625 67.95703125 C-71.68096307 65.33677385 -70.02826147 63.70653724 -67.9375 61.6875 C-67.12023437 60.89730469 -66.30296875 60.10710938 -65.4609375 59.29296875 C-62.71552771 56.73494407 -59.92693779 54.2433824 -57.08203125 51.796875 C-49.92705536 45.6218489 -43.00102985 39.18100537 -36.0546875 32.7734375 C-33.77880629 30.68911343 -31.46311888 28.65605069 -29.1328125 26.6328125 C-24.99148028 23.02204241 -20.98842178 19.27809485 -17 15.5 C-12.27130933 11.02067388 -7.49076194 6.62947585 -2.56640625 2.36523438 C-1.68939581 1.60085744 -0.82262367 0.82262367 0 0 Z " fill="#FBFCFC" transform="translate(649,916)"/>
<path d="M0 0 C8.69175383 4.84752735 14.03703668 11.80312972 18.0625 20.8125 C19.0625 25.8125 19.0625 25.8125 19.0625 39.8125 C1.2425 39.8125 -16.5775 39.8125 -34.9375 39.8125 C-31.64406864 47.86186142 -31.64406864 47.86186142 -25 52.78515625 C-18.40704596 55.31637968 -11.16021706 56.24371097 -4.37890625 53.9453125 C-2.87009589 53.26647171 -1.37714768 52.55018543 0.08984375 51.78515625 C2.07121223 50.80820427 3.90786091 50.27042106 6.0625 49.8125 C7.26504524 51.04803276 8.44916232 52.30152339 9.625 53.5625 C10.61693359 54.60664062 10.61693359 54.60664062 11.62890625 55.671875 C13.0625 57.8125 13.0625 57.8125 12.89453125 59.953125 C10.93856174 64.32421179 6.67957431 66.19907911 2.5 68.0625 C-8.54481347 71.83389972 -22.66003891 71.40301333 -33.45703125 67.078125 C-42.7254646 62.3490346 -49.98979702 54.78961709 -53.62890625 44.94140625 C-56.80923469 33.88809693 -54.77861374 23.04692924 -49.4296875 12.97265625 C-38.94426365 -3.24317365 -17.25406674 -8.91401066 0 0 Z " fill="#F7F7F8" transform="translate(938.9375,967.1875)"/>
<path d="M0 0 C1.36125 -0.0299707 1.36125 -0.0299707 2.75 -0.06054688 C10.05323198 -0.05528518 15.11723762 1.64991538 20.83203125 6.19140625 C28.25212648 14.55029699 29.08650679 24.20133281 28.91796875 35.01171875 C28.91372391 36.06156448 28.90947906 37.11141022 28.90510559 38.19306946 C28.88848518 41.50398827 28.850865 44.81426918 28.8125 48.125 C28.79743164 50.38736092 28.78374703 52.64973151 28.77148438 54.91210938 C28.73863635 60.42081388 28.68697126 65.92904928 28.625 71.4375 C22.025 71.4375 15.425 71.4375 8.625 71.4375 C8.56892578 66.77753906 8.56892578 66.77753906 8.51171875 62.0234375 C8.46546906 59.00497514 8.41424786 55.98663509 8.36254883 52.96826172 C8.32935451 50.87523876 8.30130555 48.78212747 8.27856445 46.68896484 C8.24491769 43.67507388 8.19259607 40.66198837 8.13671875 37.6484375 C8.13032883 36.71695892 8.1239389 35.78548035 8.11735535 34.82577515 C7.97286774 28.39885172 6.86743731 24.1003943 2.625 19.0625 C-2.00868619 16.55258664 -6.22702493 16.6299745 -11.375 17.4375 C-15.36836841 18.81726849 -18.31690097 20.73842732 -20.57647705 24.36680603 C-23.16544248 30.05591571 -23.97515318 34.84791115 -23.984375 41.06640625 C-24.00917938 42.37906715 -24.00917938 42.37906715 -24.03448486 43.71824646 C-24.08258249 46.47890506 -24.10424978 49.23901449 -24.125 52 C-24.15319178 53.88609478 -24.18312364 55.77216439 -24.21484375 57.65820312 C-24.29156771 62.25154541 -24.33244057 66.84320996 -24.375 71.4375 C-30.975 71.4375 -37.575 71.4375 -44.375 71.4375 C-44.375 48.3375 -44.375 25.2375 -44.375 1.4375 C-38.435 1.4375 -32.495 1.4375 -26.375 1.4375 C-26.375 4.4075 -26.375 7.3775 -26.375 10.4375 C-25.72273437 9.96699219 -25.07046875 9.49648438 -24.3984375 9.01171875 C-23.52445313 8.38910156 -22.65046875 7.76648438 -21.75 7.125 C-20.89148438 6.51011719 -20.03296875 5.89523437 -19.1484375 5.26171875 C-12.50611264 0.89275296 -7.82809322 -0.06064016 0 0 Z " fill="#FAF9FA" transform="translate(1012.375,963.5625)"/>
<path d="M0 0 C6.6 0 13.2 0 20 0 C20.02578125 3.25101563 20.0515625 6.50203125 20.078125 9.8515625 C20.11656546 13.00903895 20.16171938 16.16635321 20.20751953 19.32373047 C20.2357006 21.51375553 20.25692934 23.70388177 20.27099609 25.89404297 C20.29246477 29.04707527 20.33913675 32.19889485 20.390625 35.3515625 C20.39185364 36.32678864 20.39308228 37.30201477 20.39434814 38.30679321 C20.51966862 44.15698073 21.12009092 47.53350922 25 52 C28.98011212 54.43229074 33.44933327 54.80972718 38 54 C42.64451342 52.07096887 46.18394399 50.22408402 49 46 C50.17815427 40.93094254 50.21386716 35.84230194 50.31640625 30.6640625 C50.33718735 29.78471039 50.35796844 28.90535828 50.37937927 27.99935913 C50.44442963 25.20798069 50.50355148 22.41651329 50.5625 19.625 C50.60572762 17.72525145 50.64934323 15.82551169 50.69335938 13.92578125 C50.80079055 9.28394376 50.90019417 4.64203269 51 0 C57.6 0 64.2 0 71 0 C71 23.1 71 46.2 71 70 C65.39 70 59.78 70 54 70 C54 66.7 54 63.4 54 60 C53.3709375 60.54269531 52.741875 61.08539062 52.09375 61.64453125 C43.71093648 68.65125038 35.83645192 72.41174906 24.79296875 72.28125 C17.11768051 71.50835384 10.36753901 68.50172749 5 63 C-0.51117472 55.71737627 -0.28077731 46.99449205 -0.1953125 38.28125 C-0.1924826 37.18276733 -0.18965271 36.08428467 -0.18673706 34.95251465 C-0.17560486 31.468229 -0.15051298 27.98420704 -0.125 24.5 C-0.11496121 22.1276079 -0.10583694 19.75521174 -0.09765625 17.3828125 C-0.07568829 11.58844115 -0.04120648 5.79426518 0 0 Z " fill="#F8F8F8" transform="translate(1105,965)"/>
<path d="M0 0 C1.73115506 2.04591052 2.75031969 3.68317696 4 6 C5.07042725 7.63353042 6.15432087 9.25829862 7.25 10.875 C8.16666667 12.25 9.08333333 13.625 10 15 C8.49030849 18.70333167 6.3336357 20.67763944 3.3125 23.25 C-0.4554521 26.55569265 -3.78149255 29.91637936 -7 33.74609375 C-10.16756093 37.31578644 -13.58889695 40.62991672 -17.00146484 43.96411133 C-19.86079675 46.70594659 -19.86079675 46.70594659 -22 50 C-22.66 50 -23.32 50 -24 50 C-24.72779729 53.94679637 -25.14062609 57.71881734 -25.20532227 61.72998047 C-25.22526749 62.83066864 -25.24521271 63.93135681 -25.26576233 65.06539917 C-25.29083107 66.82353439 -25.29083107 66.82353439 -25.31640625 68.6171875 C-25.33718735 69.82948029 -25.35796844 71.04177307 -25.37937927 72.290802 C-25.44460982 76.1521453 -25.50363651 80.01355491 -25.5625 83.875 C-25.60571041 86.49740261 -25.6493255 89.11979859 -25.69335938 91.7421875 C-25.80102324 98.16139143 -25.90029427 104.58064781 -26 111 C-34.58 111 -43.16 111 -52 111 C-51.58359697 98.09150593 -49.2648294 85.78012575 -46.79736328 73.12109375 C-45.90561451 68.53248086 -45.04423693 63.93828209 -44.18359375 59.34375 C-43.56010616 56.02079385 -42.9363474 52.69788862 -42.3125 49.375 C-42.16238464 48.57495544 -42.01226929 47.77491089 -41.85760498 46.95062256 C-39.05068407 32.01559068 -39.05068407 32.01559068 -37.42700195 24.94628906 C-36.64498688 21.38183841 -36.04831626 17.78452908 -35.4375 14.1875 C-34.73883252 10.09223371 -34.04376068 6.02402341 -33 2 C-28.81284871 1.66218885 -24.62523015 1.3305515 -20.4375 1 C-19.25607422 0.90460937 -18.07464844 0.80921875 -16.85742188 0.7109375 C-3.93158784 -0.3028534 -3.93158784 -0.3028534 0 0 Z " fill="#FBFBFB" transform="translate(585,924)"/>
<path d="M0 0 C6.27 0 12.54 0 19 0 C19 6.6 19 13.2 19 20 C24.94 20 30.88 20 37 20 C37 24.95 37 29.9 37 35 C31.06 35 25.12 35 19 35 C19.07412174 39.75145924 19.15705269 44.50107697 19.26245117 49.25170898 C19.2956311 50.86651963 19.32368458 52.48144431 19.34643555 54.09643555 C19.38011025 56.42285592 19.43242963 58.74823783 19.48828125 61.07421875 C19.49467117 61.79212082 19.5010611 62.51002289 19.50764465 63.24967957 C19.63489976 67.62345457 20.22926589 70.56035493 23 74 C25.9477007 74.81928716 25.9477007 74.81928716 29.1875 74.8125 C30.27417969 74.86019531 31.36085938 74.90789062 32.48046875 74.95703125 C33.31191406 74.97121094 34.14335938 74.98539063 35 75 C35.70365602 76.5552912 36.38729378 78.11964827 37.0625 79.6875 C37.44535156 80.55761719 37.82820313 81.42773438 38.22265625 82.32421875 C39.0935848 85.32213864 38.85006226 87.03280153 38 90 C26.82535221 92.51823049 17.94042439 92.72726495 7.625 87.1875 C3.82440897 84.02034081 1.56111761 80.68335282 0 76 C-0.08567246 74.63407817 -0.11773647 73.26435142 -0.11352539 71.89575195 C-0.11344986 71.07512772 -0.11337433 70.25450348 -0.11329651 69.40901184 C-0.10813522 68.52767075 -0.10297394 67.64632965 -0.09765625 66.73828125 C-0.0962413 65.83248825 -0.09482635 64.92669525 -0.09336853 63.99345398 C-0.08777001 61.09976909 -0.07521781 58.20616151 -0.0625 55.3125 C-0.05748481 53.35091258 -0.05292193 51.38932394 -0.04882812 49.42773438 C-0.03780107 44.61845979 -0.02053747 39.809243 0 35 C-3.96 35 -7.92 35 -12 35 C-12 30.05 -12 25.1 -12 20 C-8.04 20 -4.08 20 0 20 C0 13.4 0 6.8 0 0 Z " fill="#FAFAFB" transform="translate(1059,945)"/>
<path d="M0 0 C6.93 0 13.86 0 21 0 C21 33.66 21 67.32 21 102 C14.07 102 7.14 102 0 102 C0 68.34 0 34.68 0 0 Z " fill="#F9F9FA" transform="translate(1510,933)"/>
<path d="M0 0 C5.59234624 2.8337898 9.85102329 8.52181987 11.8046875 14.3828125 C12.3906748 20.72725196 12.19683654 26.83635126 8.8046875 32.3828125 C4.83449593 36.79413646 0.53723189 40.03188952 -5.48046875 40.59765625 C-11.98494337 40.84292302 -17.16881137 40.18490372 -22.14453125 35.578125 C-27.8521687 29.4421253 -28.56557754 24.42802034 -28.4765625 16.171875 C-27.91626486 10.61559004 -25.69868379 6.81101522 -21.6953125 3.0078125 C-15.01176615 -1.33649262 -7.81977851 -2.19844307 0 0 Z " fill="#0E0E2C" transform="translate(713.1953125,980.6171875)"/>
<path d="M0 0 C12.54 0 25.08 0 38 0 C38 5.61 38 11.22 38 17 C25.46 17 12.92 17 0 17 C0 11.39 0 5.78 0 0 Z " fill="#FCFCFC" transform="translate(1339,988)"/>
<path d="M0 0 C0.33 0 0.66 0 1 0 C1 37.62 1 75.24 1 114 C-3.07255149 116.03627575 -4.67416475 116.23848858 -9.078125 116.1953125 C-10.23828125 116.18886719 -11.3984375 116.18242188 -12.59375 116.17578125 C-14.40359375 116.15064453 -14.40359375 116.15064453 -16.25 116.125 C-17.47203125 116.11597656 -18.6940625 116.10695313 -19.953125 116.09765625 C-22.96894782 116.07409513 -25.98437492 116.04119706 -29 116 C-33.0321712 110.03858275 -32.47563226 103.71642197 -32.51171875 96.7265625 C-32.52966995 95.44768158 -32.54762115 94.16880066 -32.56611633 92.85116577 C-32.61101411 89.46785039 -32.6433628 86.08489441 -32.66955566 82.70141602 C-32.69944997 79.24221797 -32.74594955 75.78324651 -32.79101562 72.32421875 C-32.87592333 65.54958408 -32.94428272 58.77493424 -33 52 C-34.485 54.475 -34.485 54.475 -36 57 C-36.99 56.34 -37.98 55.68 -39 55 C-38.15115234 54.16855469 -38.15115234 54.16855469 -37.28515625 53.3203125 C-36.55167969 52.59585938 -35.81820312 51.87140625 -35.0625 51.125 C-34.33160156 50.40570312 -33.60070312 49.68640625 -32.84765625 48.9453125 C-30.94332001 47.12972808 -30.94332001 47.12972808 -30 45 C-29.34 45 -28.68 45 -28 45 C-28 67.44 -28 89.88 -28 113 C-19.75 113 -11.5 113 -3 113 C-3 84.95 -3 56.9 -3 28 C-2.67 28 -2.34 28 -2 28 C-1.67 34.6 -1.34 41.2 -1 48 C-0.67 32.16 -0.34 16.32 0 0 Z " fill="#1E1D2E" transform="translate(657,922)"/>
<path d="M0 0 C2.57531657 2.57531657 3.51035944 5.4626979 4.78515625 8.80078125 C5.04630722 9.47417038 5.30745819 10.14755951 5.57652283 10.84135437 C6.12789288 12.2668585 6.67661946 13.69338749 7.22290039 15.12084961 C8.05627387 17.29624761 8.89952663 19.4676171 9.74414062 21.63867188 C10.27924325 23.02581135 10.8137673 24.41317419 11.34765625 25.80078125 C11.59870621 26.44678787 11.84975616 27.09279449 12.1084137 27.75837708 C13.42457391 31.21498839 14.26723157 34.33615783 15 38 C5.43 38 -4.14 38 -14 38 C-12.69741601 32.13837202 -11.58416632 27.45392401 -9.43359375 22.03125 C-9.19463882 21.42486694 -8.9556839 20.81848389 -8.70948792 20.19372559 C-8.2109247 18.93226252 -7.70919699 17.67204564 -7.2043457 16.41308594 C-6.42898497 14.47875716 -5.66395568 12.54057418 -4.90039062 10.6015625 C-1.14791028 1.14791028 -1.14791028 1.14791028 0 0 Z " fill="#13142B" transform="translate(1449,957)"/>
<path d="M0 0 C4.98839166 2.00388383 8.77680999 4.73692716 11.0625 9.6875 C12 13 12 13 12 16 C0.12 16 -11.76 16 -24 16 C-24 9.21662469 -24 9.21662469 -21.3125 6.3125 C-20.81363281 5.75175781 -20.31476562 5.19101562 -19.80078125 4.61328125 C-13.74772247 -0.80952412 -7.85525095 -1.13279033 0 0 Z " fill="#0A0B25" transform="translate(928,978)"/>
<path d="M0 0 C-3.46391073 4.10545771 -6.96548666 8.12036154 -10.75 11.9375 C-11.50796875 12.70964844 -12.2659375 13.48179687 -13.046875 14.27734375 C-15 16 -15 16 -17 16 C-17.309375 16.639375 -17.61875 17.27875 -17.9375 17.9375 C-19 20 -19 20 -20 21 C-22.69654854 21.07319621 -25.36691458 21.09242537 -28.0625 21.0625 C-28.82111328 21.05798828 -29.57972656 21.05347656 -30.36132812 21.04882812 C-32.24091871 21.0370068 -34.12046899 21.01907078 -36 21 C-34.38041647 18.33780957 -32.72723537 15.71264406 -31.0078125 13.11328125 C-28.98064245 10.08513459 -28.98064245 10.08513459 -27.4921875 7.04296875 C-21.39882359 -3.2451022 -10.5536411 -0.93002531 0 0 Z " fill="#F0EFF0" transform="translate(949,937)"/>
<path d="M0 0 C4.46683352 2.2755567 6.9574369 4.4395929 9 9 C9.40794688 12.52048057 9.34887542 16.01095264 9.29296875 19.55078125 C9.28872391 20.56472458 9.28447906 21.57866791 9.28010559 22.62333679 C9.26334859 25.85333099 9.22570122 29.08269522 9.1875 32.3125 C9.17244934 34.50585035 9.1587616 36.6992105 9.14648438 38.89257812 C9.11601004 44.26215516 9.05728166 49.63037461 9 55 C15.6 55 22.2 55 29 55 C29 38.17 29 21.34 29 4 C29.66 4 30.32 4 31 4 C31.02526692 11.38728102 31.0428316 18.77455098 31.05493164 26.16186523 C31.05997363 28.67716895 31.06680703 31.19246972 31.07543945 33.70776367 C31.08751094 37.31429775 31.09322949 40.92079323 31.09765625 44.52734375 C31.10281754 45.65961899 31.10797882 46.79189423 31.11329651 47.95848083 C31.11337204 48.99948441 31.11344757 50.04048798 31.11352539 51.11303711 C31.115746 52.03459091 31.11796661 52.95614471 31.12025452 53.90562439 C31 56 31 56 30 57 C28.37742456 57.0991657 26.75060169 57.13079777 25.125 57.1328125 C24.14015625 57.13410156 23.1553125 57.13539062 22.140625 57.13671875 C21.10421875 57.13285156 20.0678125 57.12898438 19 57.125 C17.44539063 57.13080078 17.44539063 57.13080078 15.859375 57.13671875 C14.87453125 57.13542969 13.8896875 57.13414063 12.875 57.1328125 C11.96492188 57.13168457 11.05484375 57.13055664 10.1171875 57.12939453 C8 57 8 57 7 56 C6.90704185 54.55710213 6.88253487 53.10970215 6.88647461 51.66381836 C6.88655014 50.7429393 6.88662567 49.82206024 6.88670349 48.87327576 C6.89186478 47.87224319 6.89702606 46.87121063 6.90234375 45.83984375 C6.9037587 44.82024063 6.90517365 43.80063751 6.90663147 42.75013733 C6.91224903 39.47922893 6.9248045 36.20838787 6.9375 32.9375 C6.94251274 30.72591244 6.94707604 28.51432382 6.95117188 26.30273438 C6.96222416 20.86846643 6.97897937 15.43423803 7 10 C6.34 10 5.68 10 5 10 C4.360625 9.195625 3.72125 8.39125 3.0625 7.5625 C-1.3105762 3.90339542 -5.45221274 4.10687506 -11 4 C-10.67 3.01 -10.34 2.02 -10 1 C-6.78314421 -0.60842789 -3.4888991 -0.46778535 0 0 Z " fill="#100F11" transform="translate(1281,980)"/>
<path d="M0 0 C4.8895657 -0.48895657 8.05652514 -0.55909621 12.375 2 C17.94456323 8.36521512 18.43582908 14.87342415 18.29296875 22.96875 C18.28872391 23.88966431 18.28447906 24.81057861 18.28010559 25.75939941 C18.26344065 28.67324245 18.22581188 31.58636939 18.1875 34.5 C18.17243739 36.48696911 18.15875175 38.47394917 18.14648438 40.4609375 C18.11614102 45.3077831 18.05739751 50.15309906 18 55 C24.27 55 30.54 55 37 55 C37.33 55.99 37.66 56.98 38 58 C30.74 58 23.48 58 16 58 C14.18174831 54.36349662 13.75177802 53.34586201 13.76049805 49.58618164 C13.75676682 48.72170914 13.75303558 47.85723663 13.74919128 46.96656799 C13.75539238 45.57739418 13.75539238 45.57739418 13.76171875 44.16015625 C13.74630246 42.19074829 13.72999908 40.22134711 13.71289062 38.25195312 C13.69642254 35.15324942 13.687517 32.0550428 13.69458008 28.95629883 C13.69719881 25.9611808 13.66909274 22.96757265 13.63671875 19.97265625 C13.64692551 19.04856461 13.65713226 18.12447296 13.66764832 17.17237854 C13.59923688 12.67156466 13.46744863 10.62404169 10.69848633 6.92749023 C7.43383587 4.59559705 4.9651785 4.23324579 1 4 C1.66 3.34 2.32 2.68 3 2 C2.01 1.34 1.02 0.68 0 0 Z " fill="#17151D" transform="translate(837,980)"/>
<path d="M0 0 C0.33 0 0.66 0 1 0 C1.05379226 2.95857409 1.09357093 5.91617721 1.125 8.875 C1.14175781 9.71675781 1.15851562 10.55851563 1.17578125 11.42578125 C1.18544922 12.63427734 1.18544922 12.63427734 1.1953125 13.8671875 C1.21102295 14.98262939 1.21102295 14.98262939 1.22705078 16.12060547 C1 18 1 18 -1 20 C-3.10073853 20.2784729 -3.10073853 20.2784729 -5.72509766 20.31884766 C-6.70596344 20.33871735 -7.68682922 20.35858704 -8.69741821 20.37905884 C-10.28965714 20.39638565 -10.28965714 20.39638565 -11.9140625 20.4140625 C-13.54122696 20.44311172 -13.54122696 20.44311172 -15.20126343 20.4727478 C-18.67576159 20.53266426 -22.15029267 20.57897739 -25.625 20.625 C-27.97657718 20.66316865 -30.32814021 20.70221971 -32.6796875 20.7421875 C-38.4529997 20.83837559 -44.22639666 20.92338753 -50 21 C-49.79375 21.598125 -49.5875 22.19625 -49.375 22.8125 C-49 25 -49 25 -51 28 C-51.84495189 26.92570402 -52.67554858 25.84010798 -53.5 24.75 C-53.9640625 24.14671875 -54.428125 23.5434375 -54.90625 22.921875 C-56 21 -56 21 -56 17 C-38.18 17 -20.36 17 -2 17 C-2 15.02 -2 13.04 -2 11 C-1.67 11 -1.34 11 -1 11 C-0.67 7.37 -0.34 3.74 0 0 Z " fill="#0E0A1C" transform="translate(960,990)"/>
<path d="M0 0 C0.99 0.33 1.98 0.66 3 1 C1.48519047 5.12108069 -0.99239459 6.48827738 -4.62890625 8.78515625 C-13.56276364 15.09933076 -22.22453378 22.19163076 -24.75341797 33.31347656 C-27.36014993 51.57773371 -26.15278273 70.66687915 -25 89 C-25.66 88.67 -26.32 88.34 -27 88 C-26.67 69.52 -26.34 51.04 -26 32 C-26.66 32 -27.32 32 -28 32 C-27.67 30.68 -27.34 29.36 -27 28 C-26.34 28 -25.68 28 -25 28 C-24.61171021 27.12166504 -24.61171021 27.12166504 -24.21557617 26.22558594 C-22.90778276 23.8311604 -21.50263899 22.28906671 -19.55078125 20.390625 C-18.86693359 19.71773437 -18.18308594 19.04484375 -17.47851562 18.3515625 C-16.76373047 17.65804687 -16.04894531 16.96453125 -15.3125 16.25 C-9.95534279 11.02689584 -4.84299639 5.70662432 0 0 Z " fill="#241F33" transform="translate(588,946)"/>
<path d="M0 0 C0.88945313 -0.00257813 1.77890625 -0.00515625 2.6953125 -0.0078125 C7.52202553 0.06422799 11.16034159 0.23629035 15 3.5 C15 4.16 15 4.82 15 5.5 C14.01 5.83 13.02 6.16 12 6.5 C12 5.84 12 5.18 12 4.5 C4.41 4.5 -3.18 4.5 -11 4.5 C-11.99 7.47 -12.98 10.44 -14 13.5 C-15.04174511 16.19941251 -16.09518353 18.88430184 -17.1875 21.5625 C-17.59645508 22.57473633 -17.59645508 22.57473633 -18.01367188 23.60742188 C-18.67335311 25.23926494 -19.33631421 26.86978152 -20 28.5 C-20.99 28.17 -21.98 27.84 -23 27.5 C-21.49045584 21.95273204 -19.7274605 16.53982057 -17.625 11.1875 C-17.24601562 10.22199219 -16.86703125 9.25648438 -16.4765625 8.26171875 C-12.31435451 0.47684825 -8.24104289 -0.26275789 0 0 Z " fill="#181723" transform="translate(1449,928.5)"/>
<path d="M0 0 C2.08254919 3.43384342 2.08254919 3.43384342 1.72583008 5.88037109 C1.34527466 6.87931396 1.34527466 6.87931396 0.95703125 7.8984375 C0.66393066 8.68702148 0.37083008 9.47560547 0.06884766 10.28808594 C-0.28387207 11.18301758 -0.6365918 12.07794922 -1 13 C-1.589021 14.53962402 -1.589021 14.53962402 -2.18994141 16.11035156 C-3.54480457 19.62311074 -4.9255345 23.1247983 -6.3125 26.625 C-6.80526583 27.87330474 -7.29785934 29.12167751 -7.7902832 30.37011719 C-11.16834557 38.92345428 -14.56209781 47.47052114 -18 56 C-19.40733993 53.76481306 -20.05890294 52.49960297 -19.74511719 49.83813477 C-18.78899158 46.19627364 -17.43068993 42.75880397 -16.015625 39.27734375 C-15.71815369 38.536017 -15.42068237 37.79469025 -15.11419678 37.03089905 C-14.16349828 34.66478615 -13.20676236 32.30116644 -12.25 29.9375 C-11.62201627 28.37580362 -10.99440857 26.81395597 -10.3671875 25.25195312 C-6.97175418 16.80913668 -3.5282427 8.38830461 0 0 Z " fill="#1C1B24" transform="translate(1419,971)"/>
<path d="M0 0 C0.83920486 0.0028299 1.67840973 0.00565979 2.54304504 0.00857544 C5.22285228 0.01976865 7.90232506 0.04487149 10.58203125 0.0703125 C12.39908371 0.08034342 14.21614142 0.08946907 16.03320312 0.09765625 C20.487108 0.11970516 24.94076292 0.15422899 29.39453125 0.1953125 C29.39453125 1.5153125 29.39453125 2.8353125 29.39453125 4.1953125 C24.01937192 4.21999009 18.6442454 4.23816178 13.26904297 4.25024414 C11.43961004 4.25527987 9.61018116 4.26210877 7.78076172 4.27075195 C5.15461227 4.28285074 2.52851593 4.28854833 -0.09765625 4.29296875 C-0.91853729 4.29813004 -1.73941833 4.30329132 -2.58517456 4.30860901 C-8.37772534 4.30918421 -8.37772534 4.30918421 -10.60546875 3.1953125 C-10.60546875 9.1353125 -10.60546875 15.0753125 -10.60546875 21.1953125 C-10.93546875 21.1953125 -11.26546875 21.1953125 -11.60546875 21.1953125 C-11.69234371 18.07048688 -11.74581443 14.94597004 -11.79296875 11.8203125 C-11.81810547 10.93085937 -11.84324219 10.04140625 -11.86914062 9.125 C-11.87880859 8.27421875 -11.88847656 7.4234375 -11.8984375 6.546875 C-11.91414795 5.76135254 -11.9298584 4.97583008 -11.94604492 4.16650391 C-11.83365479 3.51601074 -11.72126465 2.86551758 -11.60546875 2.1953125 C-7.72053713 -0.39464191 -4.49979639 -0.05694292 0 0 Z " fill="#2C2B38" transform="translate(1347.60546875,983.8046875)"/>
<path d="M0 0 C0.33 0 0.66 0 1 0 C2.16249413 7.44178517 1.69585958 13.82568573 0.25 21.1875 C0.0653418 22.18402588 -0.11931641 23.18055176 -0.30957031 24.20727539 C-0.85763236 27.14139514 -1.42520905 30.07101207 -2 33 C-2.16113281 33.83080078 -2.32226562 34.66160156 -2.48828125 35.51757812 C-3.29835635 39.68418179 -4.13349082 43.84469461 -5 48 C-5.66 48 -6.32 48 -7 48 C-7.99 52.95 -8.98 57.9 -10 63 C-10.33 63 -10.66 63 -11 63 C-11.25076236 56.97602769 -10.29808381 51.49858118 -9.1015625 45.60546875 C-8.80903091 44.1243737 -8.80903091 44.1243737 -8.5105896 42.61335754 C-7.88827069 39.4701336 -7.25678724 36.32883299 -6.625 33.1875 C-6.20772639 31.08801116 -5.79105385 28.98840277 -5.375 26.88867188 C-4.43168156 22.13512032 -3.4820716 17.38287078 -2.52813721 12.63143921 C-1.68317259 8.42141008 -0.84168925 4.21068497 0 0 Z " fill="#1D1928" transform="translate(544,951)"/>
<path d="M0 0 C0.33 0 0.66 0 1 0 C1.33 4.95 1.66 9.9 2 15 C2.33 10.05 2.66 5.1 3 0 C3.33 0 3.66 0 4 0 C4 6.6 4 13.2 4 20 C-0.29 20 -4.58 20 -9 20 C-9 25.28 -9 30.56 -9 36 C-9.99 36 -10.98 36 -12 36 C-12 37.65 -12 39.3 -12 41 C-12.103125 40.360625 -12.20625 39.72125 -12.3125 39.0625 C-12.539375 38.381875 -12.76625 37.70125 -13 37 C-13.99 36.67 -14.98 36.34 -16 36 C-15.67 35.01 -15.34 34.02 -15 33 C-14.34 33 -13.68 33 -13 33 C-12.86722656 31.85660156 -12.73445313 30.71320312 -12.59765625 29.53515625 C-12.4194969 28.0442438 -12.24109918 26.55335982 -12.0625 25.0625 C-11.93198242 23.93038086 -11.93198242 23.93038086 -11.79882812 22.77539062 C-11.11328125 17.11328125 -11.11328125 17.11328125 -10 16 C-6.66381769 15.85742811 -3.34024394 15.95771843 0 16 C0 10.72 0 5.44 0 0 Z " fill="#1F1D2A" transform="translate(1055,945)"/>
<path d="M0 0 C0.74886475 0.00523682 1.49772949 0.01047363 2.26928711 0.01586914 C3.07817383 0.0190918 3.88706055 0.02231445 4.72045898 0.02563477 C5.5705957 0.03401367 6.42073242 0.04239258 7.29663086 0.05102539 C8.15063477 0.05553711 9.00463867 0.06004883 9.88452148 0.06469727 C12.00108749 0.07652166 14.11761771 0.0944577 16.23413086 0.11352539 C16.23413086 0.44352539 16.23413086 0.77352539 16.23413086 1.11352539 C8.31413086 1.60852539 8.31413086 1.60852539 0.23413086 2.11352539 C-0.09586914 25.54352539 -0.42586914 48.97352539 -0.76586914 73.11352539 C-1.09586914 73.11352539 -1.42586914 73.11352539 -1.76586914 73.11352539 C-2.69971167 56.25965461 -2.87655352 39.42687006 -2.89086914 22.55102539 C-2.8933667 21.50114441 -2.89586426 20.45126343 -2.8984375 19.36956787 C-2.90430216 16.36621763 -2.9028498 13.3629704 -2.89868164 10.35961914 C-2.90066559 9.44096573 -2.90264954 8.52231232 -2.9046936 7.57582092 C-2.87724063 0.18497399 -2.87724063 0.18497399 0 0 Z " fill="#08070A" transform="translate(968.765869140625,962.886474609375)"/>
<path d="M0 0 C0.33 0 0.66 0 1 0 C1 17.82 1 35.64 1 54 C-5.6 54 -12.2 54 -19 54 C-19.33 52.35 -19.66 50.7 -20 49 C-21.32 48.67 -22.64 48.34 -24 48 C-22.71480435 45.13302508 -21.42870746 43.02392288 -19 41 C-18.34 41 -17.68 41 -17 41 C-17 44.3 -17 47.6 -17 51 C-11.39 51 -5.78 51 0 51 C0 34.17 0 17.34 0 0 Z " fill="#26242A" transform="translate(1176,984)"/>
<path d="M0 0 C5.94 0 11.88 0 18 0 C17.67 0.66 17.34 1.32 17 2 C12.38 2 7.76 2 3 2 C3.33 2.99 3.66 3.98 4 5 C4.01604778 7.28545638 3.96563536 9.57160219 3.87890625 11.85546875 C3.85529526 12.51710526 3.83168427 13.17874176 3.80735779 13.86042786 C3.73090143 15.96968002 3.64680043 18.0785482 3.5625 20.1875 C3.5092612 21.61912196 3.45652093 23.05076254 3.40429688 24.48242188 C3.27531118 27.98851576 3.13946876 31.49430571 3 35 C2.01 34.67 1.02 34.34 0 34 C0 22.78 0 11.56 0 0 Z " fill="#111019" transform="translate(1078,980)"/>
<path d="M0 0 C2.60478883 -0.0809313 5.20706653 -0.14045434 7.8125 -0.1875 C8.55048828 -0.21263672 9.28847656 -0.23777344 10.04882812 -0.26367188 C15.6024494 -0.3390604 15.6024494 -0.3390604 17.69921875 1.44921875 C18.12847656 1.96097656 18.55773437 2.47273437 19 3 C21.39719432 3.67958603 21.39719432 3.67958603 24 4 C27.72278671 4.53182667 29.57235427 5.06127096 32 8 C31.67 8.99 31.34 9.98 31 11 C29.83210937 10.3503125 29.83210937 10.3503125 28.640625 9.6875 C16.16101069 3.47644772 3.5727294 3.78963626 -10 6 C-7.93243723 3.2027092 -6.85559629 2.97307727 -3.3125 2.3125 C-2.219375 2.209375 -1.12625 2.10625 0 2 C0 1.34 0 0.68 0 0 Z " fill="#121116" transform="translate(914,960)"/>
<path d="M0 0 C2.96256184 1.48437336 4.74621853 2.79409303 6.19287109 5.79541016 C7.28606413 10.5822001 7.1340254 15.07307263 6.97265625 19.9609375 C6.94763031 20.97346588 6.92260437 21.98599426 6.89682007 23.02920532 C6.81494182 26.24899381 6.71822756 29.4681392 6.62109375 32.6875 C6.56282135 34.87627619 6.50551879 37.06507844 6.44921875 39.25390625 C6.30941117 44.60712361 6.15743517 49.95989069 5.99609375 55.3125 C5.66609375 55.3125 5.33609375 55.3125 4.99609375 55.3125 C4.99244812 54.76206024 4.98880249 54.21162048 4.98504639 53.64450073 C4.94314698 47.90124708 4.87374988 42.15878705 4.78857422 36.41601562 C4.76039631 34.27449491 4.739166 32.13287082 4.72509766 29.99121094 C4.7036245 26.90766593 4.65695058 23.82535982 4.60546875 20.7421875 C4.60424011 19.78883514 4.60301147 18.83548279 4.60174561 17.85324097 C4.4758659 12.10475564 3.92142559 8.638159 -0.00390625 4.3125 C-3.2690178 3.58911546 -3.2690178 3.58911546 -6.75390625 3.9375 C-7.924375 3.99164062 -9.09484375 4.04578125 -10.30078125 4.1015625 C-11.63882813 4.20597656 -11.63882813 4.20597656 -13.00390625 4.3125 C-13.33390625 3.3225 -13.66390625 2.3325 -14.00390625 1.3125 C-9.73035025 -1.53653734 -4.74621428 -1.62833082 0 0 Z " fill="#1E1C1F" transform="translate(797.00390625,980.6875)"/>
<path d="M0 0 C3.47914941 -0.02887814 6.95826831 -0.04675687 10.4375 -0.0625 C11.92733398 -0.07506836 11.92733398 -0.07506836 13.44726562 -0.08789062 C14.39150391 -0.09111328 15.33574219 -0.09433594 16.30859375 -0.09765625 C17.62041626 -0.10551147 17.62041626 -0.10551147 18.95874023 -0.11352539 C21 0 21 0 22 1 C22.09268999 2.35094982 22.11747326 3.70667091 22.11352539 5.06079102 C22.11344986 5.92160782 22.11337433 6.78242462 22.11329651 7.66932678 C22.10813522 8.60473801 22.10297394 9.54014923 22.09765625 10.50390625 C22.0962413 11.45692123 22.09482635 12.40993622 22.09336853 13.39183044 C22.08775152 16.44875165 22.07519616 19.50560077 22.0625 22.5625 C22.05748719 24.62955624 22.05292391 26.69661362 22.04882812 28.76367188 C22.03777656 33.84247588 22.02050055 38.9212257 22 44 C21.01 44.495 21.01 44.495 20 45 C20 30.81 20 16.62 20 2 C14.06 2 8.12 2 2 2 C1.34 1.34 0.68 0.68 0 0 Z " fill="#0A090F" transform="translate(1105,963)"/>
<path d="M0 0 C3 3 3 3 3.29296875 6.79296875 C3.2730801 8.25809933 3.23737968 9.72308367 3.1875 11.1875 C3.16719727 12.31188477 3.16719727 12.31188477 3.14648438 13.45898438 C3.11118539 15.30629767 3.05737917 17.15324066 3 19 C4.14339844 18.98839844 5.28679687 18.97679687 6.46484375 18.96484375 C7.95572754 18.95546712 9.44661309 18.94636679 10.9375 18.9375 C11.69224609 18.92912109 12.44699219 18.92074219 13.22460938 18.91210938 C15.14994313 18.90347559 17.07535581 18.94775667 19 19 C20 20 20 20 20.09765625 23.81640625 C20.09098089 25.39846682 20.07901875 26.98051159 20.0625 28.5625 C20.05798828 29.36880859 20.05347656 30.17511719 20.04882812 31.00585938 C20.03700518 33.00393756 20.01906914 35.00197783 20 37 C19.34 36.67 18.68 36.34 18 36 C18 31.05 18 26.1 18 21 C12.06 21 6.12 21 0 21 C0 14.07 0 7.14 0 0 Z " fill="#0F0D12" transform="translate(1078,944)"/>
<path d="M0 0 C2.36775721 2.36775721 2.99896496 4.29711338 4.125 7.4375 C4.47820312 8.40558594 4.83140625 9.37367188 5.1953125 10.37109375 C6 13 6 13 6 16 C6.66 16 7.32 16 8 16 C9.17495143 18.93425371 10.33850852 21.87289513 11.5 24.8125 C11.83386719 25.64587891 12.16773438 26.47925781 12.51171875 27.33789062 C12.98544922 28.54155273 12.98544922 28.54155273 13.46875 29.76953125 C13.90864258 30.87711792 13.90864258 30.87711792 14.35742188 32.00708008 C15 34 15 34 15 37 C13.515 37.495 13.515 37.495 12 38 C10.48526694 34.17838344 8.97377307 30.35550243 7.46508789 26.53149414 C6.95292537 25.23460537 6.43992544 23.93804695 5.92602539 22.6418457 C3.08976976 15.48630691 0.33898062 8.33625662 -2 1 C-1.34 0.67 -0.68 0.34 0 0 Z " fill="#191823" transform="translate(1485,987)"/>
<path d="M0 0 C0.33 0 0.66 0 1 0 C1.33 19.14 1.66 38.28 2 58 C-1.12930443 54.87069557 -1.12571854 52.12538652 -1.12939453 47.90185547 C-1.13254669 46.86423065 -1.13569885 45.82660583 -1.13894653 44.75753784 C-1.1369223 43.63872223 -1.13489807 42.51990662 -1.1328125 41.3671875 C-1.13376923 40.21960968 -1.13472595 39.07203186 -1.13571167 37.88967896 C-1.13639242 35.46372421 -1.13454546 33.03776765 -1.13037109 30.61181641 C-1.12501164 26.88309681 -1.1303247 23.15449714 -1.13671875 19.42578125 C-1.13605814 17.0729164 -1.13477734 14.72005162 -1.1328125 12.3671875 C-1.13483673 11.24432343 -1.13686096 10.12145935 -1.13894653 8.96456909 C-1.13579437 7.9332486 -1.13264221 6.9019281 -1.12939453 5.83935547 C-1.12859894 4.92685028 -1.12780334 4.01434509 -1.12698364 3.07418823 C-1 1 -1 1 0 0 Z " fill="#050409" transform="translate(1104,965)"/>
<path d="M0 0 C0.33 0.66 0.66 1.32 1 2 C1.66 2 2.32 2 3 2 C2.125 6.75 2.125 6.75 1 9 C8.59 9 16.18 9 24 9 C24.33 8.34 24.66 7.68 25 7 C25.33 8.65 25.66 10.3 26 12 C16.43 12 6.86 12 -3 12 C-1 3 -1 3 0 0 Z " fill="#2B292F" transform="translate(1438,983)"/>
<path d="M0 0 C0.515625 0.37125 1.03125 0.7425 1.5625 1.125 C0.5625 2.125 0.5625 2.125 -2.5 2.1875 C-3.469375 2.166875 -4.43875 2.14625 -5.4375 2.125 C-5.7675 2.785 -6.0975 3.445 -6.4375 4.125 C-13.03011513 6.76204605 -21.36053938 7.62168158 -28.09765625 5.1484375 C-28.86980469 4.81070312 -29.64195312 4.47296875 -30.4375 4.125 C-32.4299325 3.74906934 -34.4293674 3.40520455 -36.4375 3.125 C-36.1075 2.135 -35.7775 1.145 -35.4375 0.125 C-34.25994141 0.36669922 -34.25994141 0.36669922 -33.05859375 0.61328125 C-28.516096 1.2552092 -24.08142922 1.30911387 -19.5 1.3125 C-18.19772461 1.33086914 -18.19772461 1.33086914 -16.86914062 1.34960938 C-11.80966506 1.36108211 -4.35645535 -1.56385577 0 0 Z " fill="#1C1723" transform="translate(944.4375,1034.875)"/>
<path d="M0 0 C4.8895657 -0.48895657 8.05652514 -0.55909621 12.375 2 C17.94456323 8.36521512 18.43582908 14.87342415 18.29296875 22.96875 C18.28872391 23.88966431 18.28447906 24.81057861 18.28010559 25.75939941 C18.26344065 28.67324245 18.22581188 31.58636939 18.1875 34.5 C18.17243739 36.48696911 18.15875175 38.47394917 18.14648438 40.4609375 C18.11357716 45.30756357 18.06188031 50.15366078 18 55 C17.67 55 17.34 55 17 55 C17 41.47 17 27.94 17 14 C16.34 14 15.68 14 15 14 C14.26674971 12.73374448 13.58814499 11.43561822 12.9375 10.125 C11.37244646 7.45686656 10.55319064 6.23204305 7.671875 5.0234375 C5.44207871 4.55363765 3.26928995 4.19775947 1 4 C1.66 3.34 2.32 2.68 3 2 C2.01 1.34 1.02 0.68 0 0 Z " fill="#534F55" transform="translate(837,980)"/>
<path d="M0 0 C2.37033126 2.33290498 4.39311501 4.87437909 6.484375 7.4609375 C7.845625 8.5128125 7.845625 8.5128125 9.234375 9.5859375 C11.61356052 11.5685921 12.16088762 12.44172197 12.484375 15.4609375 C11.494375 15.4609375 10.504375 15.4609375 9.484375 15.4609375 C8.1953125 13.921875 8.1953125 13.921875 6.859375 11.8359375 C1.88048315 4.87288331 -5.28587009 0.69251128 -13.515625 -1.5390625 C-17.01444899 -1.99889824 -20.48995986 -2.13688352 -24.015625 -2.2265625 C-24.9334375 -2.26072266 -25.85125 -2.29488281 -26.796875 -2.33007812 C-29.0363359 -2.41172514 -31.2754465 -2.48113788 -33.515625 -2.5390625 C-33.515625 -2.8690625 -33.515625 -3.1990625 -33.515625 -3.5390625 C-6.76992505 -5.57712873 -6.76992505 -5.57712873 0 0 Z " fill="#1F2026" transform="translate(729.515625,966.5390625)"/>
<path d="M0 0 C1.32 0 2.64 0 4 0 C5.33664395 4.95503363 5.02900501 9.81574731 4.87890625 14.89453125 C4.85529526 15.84188644 4.83168427 16.78924164 4.80735779 17.76530457 C4.7309889 20.78119903 4.64684967 23.79681923 4.5625 26.8125 C4.5092525 28.86131485 4.45651229 30.91014296 4.40429688 32.95898438 C4.27541007 37.97282884 4.13955559 42.98644161 4 48 C3.34 48 2.68 48 2 48 C1.9845388 47.16434761 1.9845388 47.16434761 1.96876526 46.31181335 C1.8606998 40.52066308 1.74610173 34.72966839 1.62768555 28.9387207 C1.58433687 26.7766444 1.54266175 24.61453387 1.50268555 22.45239258 C1.44498156 19.34706298 1.38128728 16.24190564 1.31640625 13.13671875 C1.29969376 12.16788254 1.28298126 11.19904633 1.26576233 10.20085144 C1.24581711 9.3001442 1.22587189 8.39943695 1.20532227 7.47143555 C1.18977798 6.67867722 1.1742337 5.88591888 1.15821838 5.06913757 C1.06918774 2.80260226 1.06918774 2.80260226 0 0 Z " fill="#191725" transform="translate(1015,986)"/>
<path d="M0 0 C0.33 0 0.66 0 1 0 C1.0760407 6.76262208 1.12859585 13.52513398 1.16479492 20.28808594 C1.17988495 22.5889091 1.20035927 24.88970349 1.22631836 27.19042969 C1.26269147 30.49681702 1.27972432 33.80282416 1.29296875 37.109375 C1.30845261 38.13867126 1.32393646 39.16796753 1.33988953 40.22845459 C1.34011612 41.18914856 1.34034271 42.14984253 1.34057617 43.13964844 C1.34723801 43.98348083 1.35389984 44.82731323 1.36076355 45.69671631 C1 48 1 48 -2 52 C-2 40.78 -2 29.56 -2 18 C-1.67 18 -1.34 18 -1 18 C-0.505 9.09 -0.505 9.09 0 0 Z " fill="#191828" transform="translate(1190,965)"/>
<path d="M0 0 C0.33 0.66 0.66 1.32 1 2 C1.66 2 2.32 2 3 2 C3.2149992 15.82610232 3.28164458 29.33050435 1 43 C0.67 43 0.34 43 0 43 C0 28.81 0 14.62 0 0 Z " fill="#DFDEDF" transform="translate(805,992)"/>
<path d="M0 0 C0.66 0.33 1.32 0.66 2 1 C1.5 2.8125 1.5 2.8125 0 5 C-6.94929167 8.53782121 -14.10660912 9.23041909 -21.703125 7.3203125 C-23.83844898 6.6152527 -25.92341839 5.86139682 -28 5 C-24.79851233 2.86567488 -24.14718496 2.7740044 -20.5078125 2.91015625 C-19.63769531 2.93013672 -18.76757812 2.95011719 -17.87109375 2.97070312 C-16.04803318 3.03164469 -14.22510567 3.09671406 -12.40234375 3.16601562 C-7.27304725 3.275875 -4.30164048 3.09549423 0 0 Z " fill="#1B1A1E" transform="translate(940,1015)"/>
<path d="M0 0 C14.52 0 29.04 0 44 0 C43.67 0.66 43.34 1.32 43 2 C29.47 2 15.94 2 2 2 C2 3.32 2 4.64 2 6 C1.01 6.33 0.02 6.66 -1 7 C-0.67 4.69 -0.34 2.38 0 0 Z " fill="#161119" transform="translate(1427,1014)"/>
<path d="M0 0 C-0.33 1.32 -0.66 2.64 -1 4 C-1.66 3.67 -2.32 3.34 -3 3 C-6.07752082 2.7616964 -9.16426397 2.81480623 -12.25 2.8125 C-13.09691406 2.80025391 -13.94382812 2.78800781 -14.81640625 2.77539062 C-19.61968551 2.76418546 -23.48830951 3.13487305 -28 5 C-28 4.34 -28 3.68 -28 3 C-28.66 2.67 -29.32 2.34 -30 2 C-19.95811386 -1.57612479 -10.24560284 -4.43053096 0 0 Z " fill="#222228" transform="translate(811,962)"/>
<path d="M0 0 C0.33 14.52 0.66 29.04 1 44 C0.34 44 -0.32 44 -1 44 C-2.18928395 39.7688986 -2.12544358 35.66075948 -2.09765625 31.296875 C-2.0962413 30.45908508 -2.09482635 29.62129517 -2.09336853 28.75811768 C-2.08778197 26.08870843 -2.07523194 23.4193838 -2.0625 20.75 C-2.05748326 18.93750121 -2.05292066 17.12500111 -2.04882812 15.3125 C-2.03781694 10.87496752 -2.02056155 6.43749809 -2 2 C-3.32 1.67 -4.64 1.34 -6 1 C-3.92446352 0.4465236 -2.15634036 0 0 0 Z " fill="#151416" transform="translate(1059,980)"/>
<path d="M0 0 C0.99 0.33 1.98 0.66 3 1 C1.54254576 4.36335594 -0.31117854 6.54534005 -2.9140625 9.109375 C-3.67460938 9.86347656 -4.43515625 10.61757813 -5.21875 11.39453125 C-6.0128125 12.17183594 -6.806875 12.94914063 -7.625 13.75 C-8.42679688 14.54277344 -9.22859375 15.33554687 -10.0546875 16.15234375 C-12.03202846 18.10614493 -14.01388909 20.05512103 -16 22 C-16.66 21.01 -17.32 20.02 -18 19 C-17.28714844 18.29875 -16.57429687 17.5975 -15.83984375 16.875 C-10.33348052 11.43021413 -4.9839063 5.93646177 0 0 Z " fill="#141122" transform="translate(588,946)"/>
<path d="M0 0 C-0.33 20.46 -0.66 40.92 -1 62 C-1.33 62 -1.66 62 -2 62 C-2.495 33.29 -2.495 33.29 -3 4 C-4.485 6.475 -4.485 6.475 -6 9 C-6.99 8.34 -7.98 7.68 -9 7 C-7.88121617 5.82737096 -6.75476949 4.66204862 -5.625 3.5 C-4.68527344 2.52546875 -4.68527344 2.52546875 -3.7265625 1.53125 C-2 0 -2 0 0 0 Z " fill="#221A32" transform="translate(627,970)"/>
<path d="M0 0 C0.68449219 0.08314453 1.36898437 0.16628906 2.07421875 0.25195312 C3.81152705 0.48760782 5.53370361 0.82958941 7.25 1.1875 C7.58 1.8475 7.91 2.5075 8.25 3.1875 C7.68603516 3.1968457 7.12207031 3.20619141 6.54101562 3.21582031 C3.94318008 3.27007486 1.34704081 3.35360683 -1.25 3.4375 C-2.5803125 3.45876953 -2.5803125 3.45876953 -3.9375 3.48046875 C-10.12606367 3.70798947 -14.45387966 5.00785898 -19.75 8.1875 C-20.74 8.6825 -20.74 8.6825 -21.75 9.1875 C-21.75 6.9375 -21.75 6.9375 -20.75 4.1875 C-14.19289809 -0.4698808 -7.79450235 -1.10384571 0 0 Z " fill="#202025" transform="translate(849.75,960.8125)"/>
<path d="M0 0 C0.33 0 0.66 0 1 0 C1.27000917 6.60098484 1.4998427 13.20249648 1.7019043 19.8059082 C1.77535249 22.05167192 1.85796511 24.29715551 1.94995117 26.54223633 C2.08065835 29.77134639 2.17827192 33.00003279 2.26953125 36.23046875 C2.31721146 37.23272995 2.36489166 38.23499115 2.41401672 39.2676239 C2.51639782 43.98855253 2.55409812 46.2331206 -0.27856445 50.15356445 C-3.71906238 52.48786838 -5.92595753 52.39941593 -10 52 C-7 50 -7 50 -3.86279297 48.52832031 C-0.68266613 45.71974164 -0.55594973 45.31237538 -0.22705078 41.32324219 C-0.18613573 39.39819215 -0.17754627 37.47227783 -0.1953125 35.546875 C-0.17475296 34.02383759 -0.17475296 34.02383759 -0.15377808 32.47003174 C-0.11641142 29.22957318 -0.12019762 25.99064382 -0.125 22.75 C-0.10687799 20.55205931 -0.08607688 18.35413895 -0.0625 16.15625 C-0.01058705 10.77068318 0.0075517 5.38579397 0 0 Z " fill="#201C2E" transform="translate(1153,964)"/>
<path d="M0 0 C0.78246094 -0.02578125 1.56492187 -0.0515625 2.37109375 -0.078125 C5.04181509 0.32176911 5.88227439 1.19699122 7.5625 3.25 C6.61375 3.518125 5.665 3.78625 4.6875 4.0625 C-0.03513473 5.41043887 -4.73583036 6.83098502 -9.4375 8.25 C-10.0975 7.59 -10.7575 6.93 -11.4375 6.25 C-5.45243883 0.10743722 -5.45243883 0.10743722 0 0 Z " fill="#13121A" transform="translate(702.4375,979.75)"/>
<path d="M0 0 C2.95692074 2.95692074 3.85464583 6.48609625 5.25 10.375 C5.54390625 11.14328125 5.8378125 11.9115625 6.140625 12.703125 C6.40875 13.44820312 6.676875 14.19328125 6.953125 14.9609375 C7.20223633 15.63946777 7.45134766 16.31799805 7.70800781 17.01708984 C8.08679836 19.58944505 7.32854636 20.82086736 6 23 C4.96971956 20.54524486 3.95054496 18.08685649 2.9375 15.625 C2.49567383 14.57699219 2.49567383 14.57699219 2.04492188 13.5078125 C1.30408902 11.69495092 0.64603036 9.84876857 0 8 C0.33 7.34 0.66 6.68 1 6 C-0.32 6.33 -1.64 6.66 -3 7 C-2.01 4.69 -1.02 2.38 0 0 Z " fill="#242129" transform="translate(1449,957)"/>
<path d="M0 0 C3.93622829 2.04100726 6.48209259 3.74985925 8 8 C7.34 8 6.68 8 6 8 C5.67 8.66 5.34 9.32 5 10 C4.1028125 8.7934375 4.1028125 8.7934375 3.1875 7.5625 C-0.61924313 3.64509573 -5.84652934 4.09927877 -11 4 C-10.67 3.01 -10.34 2.02 -10 1 C-6.78501861 -0.6074907 -3.48701742 -0.47314549 0 0 Z " fill="#161519" transform="translate(1281,980)"/>
<path d="M0 0 C0.33 0 0.66 0 1 0 C1.05379226 2.95857409 1.09357093 5.91617721 1.125 8.875 C1.14175781 9.71675781 1.15851562 10.55851563 1.17578125 11.42578125 C1.18222656 12.23144531 1.18867187 13.03710938 1.1953125 13.8671875 C1.20578613 14.61081543 1.21625977 15.35444336 1.22705078 16.12060547 C1 18 1 18 -1 20 C-3.06298828 20.22705078 -3.06298828 20.22705078 -5.5703125 20.1953125 C-6.46621094 20.18886719 -7.36210938 20.18242188 -8.28515625 20.17578125 C-9.22230469 20.15902344 -10.15945313 20.14226563 -11.125 20.125 C-12.06988281 20.11597656 -13.01476562 20.10695313 -13.98828125 20.09765625 C-16.32577292 20.07404522 -18.66276123 20.04111516 -21 20 C-21 19.67 -21 19.34 -21 19 C-17.04 19 -13.08 19 -9 19 C-9 18.34 -9 17.68 -9 17 C-6.69 17 -4.38 17 -2 17 C-2 15.02 -2 13.04 -2 11 C-1.67 11 -1.34 11 -1 11 C-0.67 7.37 -0.34 3.74 0 0 Z " fill="#1B182B" transform="translate(960,990)"/>
<path d="M0 0 C5.94 0 11.88 0 18 0 C17.67 0.66 17.34 1.32 17 2 C12.05 2 7.1 2 2 2 C2.04125 4.10375 2.0825 6.2075 2.125 8.375 C2.1953125 11.9609375 2.1953125 11.9609375 2 15 C1.34 15.66 0.68 16.32 0 17 C0 11.39 0 5.78 0 0 Z " fill="#0E0C0F" transform="translate(1078,980)"/>
<path d="M0 0 C2.05677635 1.66726052 2.92877399 2.51831283 3.32279968 5.18302917 C3.29837296 6.02908218 3.27394623 6.87513519 3.2487793 7.74682617 C3.22853195 8.70759567 3.20828461 9.66836517 3.18742371 10.6582489 C3.15006607 11.69270645 3.11270844 12.727164 3.07421875 13.79296875 C3.04777786 14.85413406 3.02133698 15.91529938 2.99409485 17.00862122 C2.90623612 20.40214694 2.79711816 23.79461414 2.6875 27.1875 C2.62425133 29.48629004 2.56238495 31.78511856 2.50195312 34.08398438 C2.35067993 39.72320101 2.18194244 45.36169408 2 51 C1.67 51 1.34 51 1 51 C0.99191315 50.44733963 0.98382629 49.89467926 0.97549438 49.32527161 C0.88934687 43.56614414 0.7898389 37.80735684 0.68261719 32.04858398 C0.64436615 29.90020466 0.60950653 27.75176213 0.578125 25.60327148 C0.53239063 22.51262854 0.47440944 19.42241919 0.4140625 16.33203125 C0.40251129 15.37351761 0.39096008 14.41500397 0.37905884 13.42744446 C0.27863799 8.8760591 0.16688114 5.12467726 -2 1 C-1.34 0.67 -0.68 0.34 0 0 Z " fill="#24222E" transform="translate(801,985)"/>
<path d="M0 0 C1.8871875 0.0309375 1.8871875 0.0309375 3.8125 0.0625 C2.8225 0.7225 1.8325 1.3825 0.8125 2.0625 C2.4625 2.3925 4.1125 2.7225 5.8125 3.0625 C5.8125 3.3925 5.8125 3.7225 5.8125 4.0625 C4.99265625 4.18367187 4.1728125 4.30484375 3.328125 4.4296875 C2.25046875 4.59726562 1.1728125 4.76484375 0.0625 4.9375 C-1.00484375 5.09992187 -2.0721875 5.26234375 -3.171875 5.4296875 C-7.07787679 6.24934072 -9.37059597 7.24559597 -12.1875 10.0625 C-11.70903935 5.75635411 -10.52823619 3.81369451 -7.1875 1.0625 C-4.43671116 0.14557039 -2.82801087 -0.04636083 0 0 Z " fill="#12111A" transform="translate(839.1875,980.9375)"/>
<path d="M0 0 C2.16577207 3.2486581 2.24955466 4.18601347 2.1875 7.9375 C2.18105469 8.79214844 2.17460938 9.64679687 2.16796875 10.52734375 C2.01275689 12.81220668 1.63624477 14.80622805 1 17 C-0.32 17 -1.64 17 -3 17 C-2.67 12.05 -2.34 7.1 -2 2 C-1.34 2 -0.68 2 0 2 C0 1.34 0 0.68 0 0 Z " fill="#322E35" transform="translate(723,992)"/>
<path d="M0 0 C2.97 0.495 2.97 0.495 6 1 C6 1.99 6 2.98 6 4 C5.34 4 4.68 4 4 4 C4 15.22 4 26.44 4 38 C3.67 38 3.34 38 3 38 C3 26.78 3 15.56 3 4 C1.68 4 0.36 4 -1 4 C-0.67 2.68 -0.34 1.36 0 0 Z " fill="#161B2C" transform="translate(651,912)"/>
<path d="M0 0 C2 2 2 2 3 9 C-8.22 9 -19.44 9 -31 9 C-31 8.67 -31 8.34 -31 8 C-21.1 8 -11.2 8 -1 8 C-1.33 5.69 -1.66 3.38 -2 1 C-1.34 0.67 -0.68 0.34 0 0 Z " fill="#26282F" transform="translate(937,985)"/>
<path d="M0 0 C2.12664169 3.56525225 2.58385624 6.97815306 3.125 11.0625 C3.29257812 12.29097656 3.46015625 13.51945313 3.6328125 14.78515625 C4 18 4 18 4 21 C3.01 21 2.02 21 1 21 C-1.38836006 14.28273733 -2.28795532 6.86386596 0 0 Z " fill="#16151D" transform="translate(686,991)"/>
<path d="M0 0 C0.33 0 0.66 0 1 0 C1 1.65 1 3.3 1 5 C2.82337891 4.98259766 2.82337891 4.98259766 4.68359375 4.96484375 C6.26822764 4.95546722 7.85286318 4.94636687 9.4375 4.9375 C10.23994141 4.92912109 11.04238281 4.92074219 11.86914062 4.91210938 C13.91295221 4.9034857 15.95683902 4.9477185 18 5 C19 6 19 6 19.09765625 9.81640625 C19.09098089 11.39846682 19.07901875 12.98051159 19.0625 14.5625 C19.05798828 15.36880859 19.05347656 16.17511719 19.04882812 17.00585938 C19.03700518 19.00393756 19.01906914 21.00197783 19 23 C18.34 22.67 17.68 22.34 17 22 C16.68658574 19.44242141 16.48771761 17.00356179 16.375 14.4375 C16.25125 11.983125 16.1275 9.52875 16 7 C10.72 6.67 5.44 6.34 0 6 C0 4.02 0 2.04 0 0 Z " fill="#050509" transform="translate(1079,958)"/>
<path d="M0 0 C0.66 0 1.32 0 2 0 C2.26554687 0.86882813 2.53109375 1.73765625 2.8046875 2.6328125 C3.15789062 3.78523437 3.51109375 4.93765625 3.875 6.125 C4.22304687 7.26195312 4.57109375 8.39890625 4.9296875 9.5703125 C5.91496533 12.72751664 6.94272536 15.86627606 8 19 C6.10644531 18.72485352 6.10644531 18.72485352 4 18 C2.71498368 15.28555039 1.69671 12.76555462 0.75 9.9375 C0.481875 9.17888672 0.21375 8.42027344 -0.0625 7.63867188 C-0.72271967 5.76411958 -1.36325109 3.88265428 -2 2 C-1.34 2 -0.68 2 0 2 C0 1.34 0 0.68 0 0 Z " fill="#1B1A24" transform="translate(1477,967)"/>
<path d="M0 0 C0.33 0 0.66 0 1 0 C1.125 2.875 1.125 2.875 1 6 C-1 8 -1 8 -3.24658203 8.22705078 C-4.15778809 8.21657715 -5.06899414 8.20610352 -6.0078125 8.1953125 C-6.99394531 8.18886719 -7.98007813 8.18242188 -8.99609375 8.17578125 C-10.54490234 8.15064453 -10.54490234 8.15064453 -12.125 8.125 C-13.16527344 8.11597656 -14.20554687 8.10695313 -15.27734375 8.09765625 C-17.85179092 8.07403747 -20.42578212 8.04110149 -23 8 C-23 7.01 -23 6.02 -23 5 C-15.74 5 -8.48 5 -1 5 C-0.67 3.35 -0.34 1.7 0 0 Z " fill="#413D46" transform="translate(1420,1030)"/>
<path d="M0 0 C-0.5425115 3.71660861 -1.84067381 5.09052235 -4.8125 7.3125 C-5.49957031 7.84488281 -6.18664063 8.37726562 -6.89453125 8.92578125 C-9 10 -9 10 -11.15234375 9.7578125 C-13.34884447 8.85692214 -14.52143874 7.84820158 -16 6 C-16 5.34 -16 4.68 -16 4 C-14.39125 4.2784375 -14.39125 4.2784375 -12.75 4.5625 C-8.72076338 5.10606217 -8.72076338 5.10606217 -5 4 C-4.67 3.01 -4.34 2.02 -4 1 C-2 0 -2 0 0 0 Z " fill="#18181E" transform="translate(1268,964)"/>
<path d="M0 0 C0.89203125 0.0721875 1.7840625 0.144375 2.703125 0.21875 C4.45882812 0.35796875 4.45882812 0.35796875 6.25 0.5 C7.41015625 0.5928125 8.5703125 0.685625 9.765625 0.78125 C12.17268658 0.94404644 14.58743951 1 17 1 C16.67 1.99 16.34 2.98 16 4 C13.08913331 4.9702889 11.09776315 5.16467847 8.0625 5.1875 C7.20785156 5.20167969 6.35320313 5.21585938 5.47265625 5.23046875 C2.86090697 4.98703556 1.24499348 4.3178268 -1 3 C-0.34 3 0.32 3 1 3 C0.67 2.01 0.34 1.02 0 0 Z " fill="#17171E" transform="translate(697,1016)"/>
<path d="M0 0 C0.66 0.33 1.32 0.66 2 1 C2.02692484 3.29160319 2.04636124 5.58329546 2.0625 7.875 C2.07410156 9.15117188 2.08570313 10.42734375 2.09765625 11.7421875 C2 15 2 15 1 17 C-5.93 17 -12.86 17 -20 17 C-20 16.67 -20 16.34 -20 16 C-13.73 16 -7.46 16 -1 16 C-0.67 10.72 -0.34 5.44 0 0 Z " fill="#060610" transform="translate(875,1020)"/>
<path d="M0 0 C0.99 0.33 1.98 0.66 3 1 C3 2.32 3 3.64 3 5 C2.34 5 1.68 5 1 5 C1 17.87 1 30.74 1 44 C0.67 44 0.34 44 0 44 C0 29.48 0 14.96 0 0 Z " fill="#2A2533" transform="translate(1238,990)"/>
<path d="M0 0 C5.55412833 -0.56674779 8.30443742 0.39322346 12.6171875 3.61328125 C14 5 14 5 15 8 C14.01 8.33 13.02 8.66 12 9 C11.2575 8.0409375 11.2575 8.0409375 10.5 7.0625 C7.01193613 4.18484731 4.46538959 4.29769264 0 4 C0 2.66666667 0 1.33333333 0 0 Z " fill="#191622" transform="translate(1224,980)"/>
<path d="M0 0 C0.495 1.98 0.495 1.98 1 4 C0.01 3.67 -0.98 3.34 -2 3 C-3.36515314 2.88734453 -4.73477212 2.82417414 -6.10424805 2.79467773 C-6.92487228 2.77473251 -7.74549652 2.75478729 -8.59098816 2.73423767 C-9.9129998 2.70916893 -9.9129998 2.70916893 -11.26171875 2.68359375 C-12.62040825 2.6524221 -12.62040825 2.6524221 -14.00654602 2.62062073 C-16.90012016 2.55523442 -19.79378507 2.49629096 -22.6875 2.4375 C-24.64909793 2.3943044 -26.61068668 2.35068977 -28.57226562 2.30664062 C-33.38141739 2.19956418 -38.19066046 2.09826586 -43 2 C-43 1.67 -43 1.34 -43 1 C-37.19759872 0.85727444 -31.39518978 0.71486574 -25.59277344 0.57275391 C-23.61783639 0.52433903 -21.64290148 0.47583674 -19.66796875 0.42724609 C-16.83333889 0.35751875 -13.99870154 0.2881032 -11.1640625 0.21875 C-10.27756012 0.19687622 -9.39105774 0.17500244 -8.47769165 0.15246582 C-2.22774341 0 -2.22774341 0 0 0 Z " fill="#262330" transform="translate(1472,1015)"/>
<path d="M0 0 C-0.70125 0.556875 -1.4025 1.11375 -2.125 1.6875 C-3.62424948 2.89341806 -5.11987603 4.1057906 -6.5625 5.37890625 C-10.68910256 9 -10.68910256 9 -14 9 C-13.9375 6.75 -13.9375 6.75 -13 4 C-8.5243841 0.75298455 -5.63784129 -0.5500333 0 0 Z " fill="#110F17" transform="translate(1228,981)"/>
<path d="M0 0 C1.2684375 0.433125 1.2684375 0.433125 2.5625 0.875 C-0.4375 2.875 -0.4375 2.875 -2.875 4.0625 C-6.34992244 6.52037197 -7.51503695 9.10127624 -9.4375 12.875 C-10.4275 12.215 -11.4175 11.555 -12.4375 10.875 C-11.24105026 6.35507874 -8.84000441 3.85803298 -5.32421875 0.96875 C-3.4375 -0.125 -3.4375 -0.125 0 0 Z " fill="#201F26" transform="translate(916.4375,979.125)"/>
<path d="M0 0 C0.33 0 0.66 0 1 0 C1.33 13.2 1.66 26.4 2 40 C1.01 40 0.02 40 -1 40 C-0.67 26.8 -0.34 13.6 0 0 Z " fill="#1E171E" transform="translate(1041,997)"/>
<path d="M0 0 C0.33 0 0.66 0 1 0 C1.33 2.64 1.66 5.28 2 8 C2.66 8 3.32 8 4 8 C3.74337755 9.44010481 3.46909179 10.8770687 3.1875 12.3125 C3.03667969 13.11300781 2.88585937 13.91351562 2.73046875 14.73828125 C1.92427764 17.23445587 0.97947998 18.32422106 -1 20 C-1.66 19.67 -2.32 19.34 -3 19 C-2.690625 17.906875 -2.38125 16.81375 -2.0625 15.6875 C-0.7536901 10.51723677 -0.37073653 5.30738608 0 0 Z " fill="#24232E" transform="translate(744,996)"/>
<path d="M0 0 C2.24151882 2.24151882 2.96301325 4.0067112 4.125 6.9375 C4.47820312 7.81277344 4.83140625 8.68804688 5.1953125 9.58984375 C6 12 6 12 6 15 C5.01 15.33 4.02 15.66 3 16 C1.35 11.71 -0.3 7.42 -2 3 C-1.34 3 -0.68 3 0 3 C0 2.01 0 1.02 0 0 Z " fill="#21202C" transform="translate(1494,1009)"/>
<path d="M0 0 C2.06183633 -0.08150744 4.12461349 -0.1394194 6.1875 -0.1875 C7.33605469 -0.22230469 8.48460937 -0.25710938 9.66796875 -0.29296875 C13.29157624 0.02563683 15.14639144 0.78052668 18 3 C18 3.66 18 4.32 18 5 C16.7625 4.505 16.7625 4.505 15.5 4 C12.57591681 3.16454766 10.81477844 2.88795317 7.875 2.9375 C4.86469955 2.98605323 2.79784127 2.93261376 0 2 C0 1.34 0 0.68 0 0 Z " fill="#110F16" transform="translate(915,978)"/>
<path d="M0 0 C0.99 0.33 1.98 0.66 3 1 C3 1.66 3 2.32 3 3 C3.99 3 4.98 3 6 3 C6 3.66 6 4.32 6 5 C7.98 5.66 9.96 6.32 12 7 C11.67 7.99 11.34 8.98 11 10 C10.01 10.33 9.02 10.66 8 11 C5 8 2 5 -1 2 C-0.67 1.34 -0.34 0.68 0 0 Z " fill="#1B1B25" transform="translate(813,964)"/>
<path d="M0 0 C0.66 0 1.32 0 2 0 C2.33 1.32 2.66 2.64 3 4 C5.31 4 7.62 4 10 4 C10 4.33 10 4.66 10 5 C12.97 5.495 12.97 5.495 16 6 C15.67 6.66 15.34 7.32 15 8 C9.39273577 8.29003091 5.8758005 8.13444318 1 5 C0.34 4.01 -0.32 3.02 -1 2 C-0.67 1.34 -0.34 0.68 0 0 Z " fill="#29292E" transform="translate(1128,1012)"/>
<path d="M0 0 C1.21236328 0.01353516 1.21236328 0.01353516 2.44921875 0.02734375 C3.37154297 0.04474609 3.37154297 0.04474609 4.3125 0.0625 C4.3125 0.3925 4.3125 0.7225 4.3125 1.0625 C1.6725 1.0625 -0.9675 1.0625 -3.6875 1.0625 C-3.3575 2.0525 -3.0275 3.0425 -2.6875 4.0625 C-4.11870744 4.62058089 -5.55780355 5.15846462 -7 5.6875 C-7.80050781 5.98914063 -8.60101562 6.29078125 -9.42578125 6.6015625 C-10.17214844 6.75367188 -10.91851563 6.90578125 -11.6875 7.0625 C-12.6775 6.4025 -13.6675 5.7425 -14.6875 5.0625 C-5.88640511 -0.08531022 -5.88640511 -0.08531022 0 0 Z " fill="#1F1E28" transform="translate(695.6875,960.9375)"/>
<path d="M0 0 C0.66 0 1.32 0 2 0 C6.77676538 10.37357631 6.77676538 10.37357631 5 16 C2.77976074 13.77976074 2.00011037 12.01470899 0.8125 9.125 C0.44769531 8.26132813 0.08289062 7.39765625 -0.29296875 6.5078125 C-1.04664008 3.83456944 -0.9388856 2.57147011 0 0 Z " fill="#23212D" transform="translate(1472,1020)"/>
<path d="M0 0 C0.33 0 0.66 0 1 0 C1 1.65 1 3.3 1 5 C-14.84 5.495 -14.84 5.495 -31 6 C-30.67 4.68 -30.34 3.36 -30 2 C-29.01 2.33 -28.02 2.66 -27 3 C-25.0079697 3.08291953 -23.01326287 3.10738177 -21.01953125 3.09765625 C-19.27446289 3.09282227 -19.27446289 3.09282227 -17.49414062 3.08789062 C-15.67172852 3.07532227 -15.67172852 3.07532227 -13.8125 3.0625 C-11.97268555 3.05573242 -11.97268555 3.05573242 -10.09570312 3.04882812 C-7.06375332 3.03703065 -4.03190094 3.02056921 -1 3 C-0.67 2.01 -0.34 1.02 0 0 Z " fill="#06060E" transform="translate(935,988)"/>
<path d="M0 0 C-1.13271712 3.39815137 -2.1909314 4.28644916 -4.875 6.5625 C-5.92300781 7.46162109 -5.92300781 7.46162109 -6.9921875 8.37890625 C-9 10 -9 10 -12 12 C-11.85015836 7.05522572 -9.16394878 4.68957045 -5.88671875 1.35546875 C-4 0 -4 0 0 0 Z " fill="#191724" transform="translate(589,970)"/>
<path d="M0 0 C9.07692308 -0.30769231 9.07692308 -0.30769231 13 2 C14.3125 4.125 14.3125 4.125 15 6 C14.01 6.495 14.01 6.495 13 7 C10.75689987 6.10333658 8.55245679 5.10853317 6.375 4.0625 C5.18648437 3.49660156 3.99796875 2.93070313 2.7734375 2.34765625 C1.85820313 1.90292969 0.94296875 1.45820312 0 1 C0 0.67 0 0.34 0 0 Z " fill="#1C1B21" transform="translate(931,964)"/>
<path d="M0 0 C5.94 0.66 11.88 1.32 18 2 C16.02 2.99 16.02 2.99 14 4 C14.66 4.66 15.32 5.32 16 6 C14.08210287 5.71653722 12.16570817 5.4228972 10.25 5.125 C9.18265625 4.96257812 8.1153125 4.80015625 7.015625 4.6328125 C4.32291129 4.06776118 2.36427561 3.36577086 0 2 C0 1.34 0 0.68 0 0 Z " fill="#312837" transform="translate(690,1035)"/>
<path d="M0 0 C0.99 0.66 1.98 1.32 3 2 C2.54554036 3.41791408 2.08625056 4.83428046 1.625 6.25 C1.36976562 7.03890625 1.11453125 7.8278125 0.8515625 8.640625 C0.04826333 10.86627958 -0.89711662 12.90931672 -2 15 C-4 12 -4 12 -3.57421875 9.58984375 C-3.28160156 8.71457031 -2.98898437 7.83929687 -2.6875 6.9375 C-2.40261719 6.05964844 -2.11773438 5.18179688 -1.82421875 4.27734375 C-1 2 -1 2 0 0 Z " fill="#22222D" transform="translate(1425,1018)"/>
<path d="M0 0 C0.66 0.33 1.32 0.66 2 1 C0.02 5.95 -1.96 10.9 -4 16 C-6.13288249 11.73423502 -6.24882352 11.26681369 -5 7 C-4.36562656 5.3207762 -3.70710678 3.64991582 -3 2 C-2.34 2.33 -1.68 2.66 -1 3 C-0.67 2.01 -0.34 1.02 0 0 Z " fill="#222028" transform="translate(1405,1011)"/>
<path d="M0 0 C2.76276177 0.52268466 5.3260876 1.10869587 8 2 C9.40824893 2.08021999 10.81997231 2.10765977 12.23046875 2.09765625 C13.03291016 2.09443359 13.83535156 2.09121094 14.66210938 2.08789062 C15.91217773 2.07532227 15.91217773 2.07532227 17.1875 2.0625 C18.4549707 2.05573242 18.4549707 2.05573242 19.74804688 2.04882812 C21.83206155 2.03705403 23.91603977 2.0191189 26 2 C25.67 2.66 25.34 3.32 25 4 C17.08 4 9.16 4 1 4 C0.67 2.68 0.34 1.36 0 0 Z " fill="#050614" transform="translate(910,1015)"/>
<path d="M0 0 C0.13525391 1.97119141 0.13525391 1.97119141 -0.0234375 4.3515625 C-0.075 5.20234375 -0.1265625 6.053125 -0.1796875 6.9296875 C-0.24414062 7.81914063 -0.30859375 8.70859375 -0.375 9.625 C-0.43171875 10.5221875 -0.4884375 11.419375 -0.546875 12.34375 C-0.68854753 14.56328624 -0.8399704 16.78172402 -1 19 C-1.33 19 -1.66 19 -2 19 C-2 12.73 -2 6.46 -2 0 C-8.6 0 -15.2 0 -22 0 C-22 -0.33 -22 -0.66 -22 -1 C-18.70926338 -1.22531972 -15.41750581 -1.42735982 -12.125 -1.625 C-10.71927734 -1.72167969 -10.71927734 -1.72167969 -9.28515625 -1.8203125 C-8.38925781 -1.871875 -7.49335937 -1.9234375 -6.5703125 -1.9765625 C-5.74289551 -2.02893066 -4.91547852 -2.08129883 -4.06298828 -2.13525391 C-2 -2 -2 -2 0 0 Z " fill="#0C0B13" transform="translate(1178,965)"/>
<path d="M0 0 C-0.33 5.61 -0.66 11.22 -1 17 C-1.33 17 -1.66 17 -2 17 C-2.33 12.71 -2.66 8.42 -3 4 C-4.485 6.475 -4.485 6.475 -6 9 C-6.99 8.34 -7.98 7.68 -9 7 C-7.88121617 5.82737096 -6.75476949 4.66204862 -5.625 3.5 C-4.68527344 2.52546875 -4.68527344 2.52546875 -3.7265625 1.53125 C-2 0 -2 0 0 0 Z " fill="#2D2A37" transform="translate(627,970)"/>
<path d="M0 0 C0.99 0.66 1.98 1.32 3 2 C2.16855469 2.20496094 1.33710937 2.40992188 0.48046875 2.62109375 C-1.14955078 3.02521484 -1.14955078 3.02521484 -2.8125 3.4375 C-4.43091797 3.83775391 -4.43091797 3.83775391 -6.08203125 4.24609375 C-8.0740843 4.76077412 -10.04811524 5.34937175 -12 6 C-12.33 5.01 -12.66 4.02 -13 3 C-11.5903653 2.29819469 -10.17192359 1.61406042 -8.75 0.9375 C-7.96109375 0.55464844 -7.1721875 0.17179688 -6.359375 -0.22265625 C-3.67466483 -1.10718824 -2.59757082 -1.02507443 0 0 Z " fill="#E5E7EC" transform="translate(793,965)"/>
<path d="M0 0 C0.99 0.33 1.98 0.66 3 1 C1.42702086 2.86562642 0.54489783 3.90238443 -1.90112305 4.34057617 C-2.59761963 4.32486572 -3.29411621 4.30915527 -4.01171875 4.29296875 C-4.76904297 4.28330078 -5.52636719 4.27363281 -6.30664062 4.26367188 C-7.48516602 4.2259668 -7.48516602 4.2259668 -8.6875 4.1875 C-9.88342773 4.16719727 -9.88342773 4.16719727 -11.10351562 4.14648438 C-13.06929967 4.11117089 -15.03473582 4.05736447 -17 4 C-17 3.34 -17 2.68 -17 2 C-15.85660156 1.93941406 -14.71320312 1.87882813 -13.53515625 1.81640625 C-12.04425695 1.73201572 -10.55337225 1.64736698 -9.0625 1.5625 C-8.30775391 1.52318359 -7.55300781 1.48386719 -6.77539062 1.44335938 C-3.08055813 1.55961976 -3.08055813 1.55961976 0 0 Z " fill="#211D2D" transform="translate(930,956)"/>
<path d="M0 0 C0.33 0 0.66 0 1 0 C0.57477229 7.8667126 -0.02462968 15.36190145 -2 23 C-3.44487576 21.04915692 -4.02875827 19.5434611 -3.89990234 17.10839844 C-3.55710038 14.84806404 -3.14055114 12.61581726 -2.6875 10.375 C-2.54376953 9.59898437 -2.40003906 8.82296875 -2.25195312 8.0234375 C-1.17243304 2.34486607 -1.17243304 2.34486607 0 0 Z " fill="#0F0D14" transform="translate(537,997)"/>
<path d="M0 0 C0.66 0 1.32 0 2 0 C2 0.99 2 1.98 2 3 C2.66 3.33 3.32 3.66 4 4 C3.34 7.63 2.68 11.26 2 15 C1.34 15 0.68 15 0 15 C-1.47193312 12.05613377 -0.84936173 9.62609964 -0.5625 6.375 C-0.46066406 5.18648437 -0.35882812 3.99796875 -0.25390625 2.7734375 C-0.17011719 1.85820313 -0.08632813 0.94296875 0 0 Z " fill="#17141F" transform="translate(548,926)"/>
<path d="M0 0 C0.76953125 1.703125 0.76953125 1.703125 1 4 C-0.80078125 6.359375 -0.80078125 6.359375 -3.3125 8.75 C-4.54419922 9.94882812 -4.54419922 9.94882812 -5.80078125 11.171875 C-8 13 -8 13 -10 13 C-8.125 7.25 -8.125 7.25 -7 5 C-6.195625 4.87625 -5.39125 4.7525 -4.5625 4.625 C-1.84016601 4.27432836 -1.84016601 4.27432836 -0.6875 1.9375 C-0.460625 1.298125 -0.23375 0.65875 0 0 Z " fill="#131226" transform="translate(624,973)"/>
<path d="M0 0 C1.72089844 0.11794922 1.72089844 0.11794922 3.4765625 0.23828125 C6.375 0.6875 6.375 0.6875 8.375 2.6875 C2.435 3.0175 -3.505 3.3475 -9.625 3.6875 C-9.955 2.6975 -10.285 1.7075 -10.625 0.6875 C-6.99366525 -0.50207518 -3.78451795 -0.28618815 0 0 Z " fill="#E7EAF0" transform="translate(1280.625,964.3125)"/>
<path d="M0 0 C3.68646141 1.45855647 5.16143971 3.30229045 7.25 6.625 C8.03117188 7.85089844 8.03117188 7.85089844 8.828125 9.1015625 C9.21484375 9.72804688 9.6015625 10.35453125 10 11 C6 11 6 11 4.296875 9.35546875 C3.78640625 8.64003906 3.2759375 7.92460938 2.75 7.1875 C1.96882812 6.12595703 1.96882812 6.12595703 1.171875 5.04296875 C0 3 0 3 0 0 Z " fill="#2C2035" transform="translate(577,990)"/>
<path d="M0 0 C5.75098214 -0.10414253 11.35450392 -0.20116938 17 1 C17.33 1.66 17.66 2.32 18 3 C14.24600202 4.2039337 10.66782588 4.09877617 6.75 4.0625 C5.48671875 4.05347656 4.2234375 4.04445313 2.921875 4.03515625 C1.95765625 4.02355469 0.9934375 4.01195312 0 4 C0 3.67 0 3.34 0 3 C4.455 2.505 4.455 2.505 9 2 C6.03 1.67 3.06 1.34 0 1 C0 0.67 0 0.34 0 0 Z " fill="#3E3D43" transform="translate(1278,960)"/>
<path d="M0 0 C0.99 0.33 1.98 0.66 3 1 C1.4169423 5.2742558 -1.50568404 7.26531794 -5 10 C-5.68359375 8.203125 -5.68359375 8.203125 -6 6 C-4.78515625 4.296875 -4.78515625 4.296875 -3.0625 2.75 C-2.21365234 1.96882812 -2.21365234 1.96882812 -1.34765625 1.171875 C-0.90292969 0.78515625 -0.45820312 0.3984375 0 0 Z " fill="#252334" transform="translate(588,946)"/>
<path d="M0 0 C0.99 0.33 1.98 0.66 3 1 C3 6.28 3 11.56 3 17 C2.34 17.33 1.68 17.66 1 18 C0.67 12.06 0.34 6.12 0 0 Z " fill="#0D0C0E" transform="translate(1287,988)"/>
<path d="M0 0 C1.75099539 2.62649308 2.69309325 4.61808587 3.6875 7.5625 C3.95949219 8.34753906 4.23148438 9.13257813 4.51171875 9.94140625 C5 12 5 12 4 14 C3.01 13.67 2.02 13.34 1 13 C0.234375 11.07421875 0.234375 11.07421875 -0.25 8.6875 C-0.42015625 7.90761719 -0.5903125 7.12773438 -0.765625 6.32421875 C-1.00771617 3.92348133 -0.7310448 2.28190412 0 0 Z " fill="#26242F" transform="translate(1457,977)"/>
<path d="M0 0 C0.66 0.99 1.32 1.98 2 3 C1.5390625 5.26171875 1.5390625 5.26171875 0.625 7.6875 C0.32851562 8.49574219 0.03203125 9.30398438 -0.2734375 10.13671875 C-0.51320313 10.75160156 -0.75296875 11.36648438 -1 12 C-1.99 12 -2.98 12 -4 12 C-3.5317879 7.22423661 -2.75668002 3.95523655 0 0 Z " fill="#19171F" transform="translate(1425,957)"/>
<path d="M0 0 C-0.98828125 1.48828125 -0.98828125 1.48828125 -3 3 C-5.81127043 3.21714241 -8.3883345 3.28284276 -11.1875 3.1875 C-11.93708984 3.17396484 -12.68667969 3.16042969 -13.45898438 3.14648438 C-15.30629767 3.11118539 -17.15324066 3.05737917 -19 3 C-18.67 2.34 -18.34 1.68 -18 1 C-15.7421875 0.5859375 -15.7421875 0.5859375 -12.875 0.375 C-11.88628906 0.30152344 -10.89757812 0.22804688 -9.87890625 0.15234375 C-6.57230141 -0.02263263 -3.30978891 -0.07355086 0 0 Z " fill="#ECEFF4" transform="translate(716,964)"/>
<path d="M0 0 C1.31677734 0.11408203 1.31677734 0.11408203 2.66015625 0.23046875 C4.9375 0.8125 4.9375 0.8125 6.9375 3.8125 C0.3125 5.0625 0.3125 5.0625 -3.0625 2.8125 C-4.71799531 2.42750109 -6.3847433 2.08456865 -8.0625 1.8125 C-4.68666252 -0.43805832 -3.87890641 -0.39417458 0 0 Z " fill="#201828" transform="translate(1130.0625,1036.1875)"/>
<path d="M0 0 C10.395 0.99 10.395 0.99 21 2 C21 2.33 21 2.66 21 3 C18.45873828 3.19617816 15.91739541 3.38217248 13.375 3.5625 C12.66214844 3.61857422 11.94929687 3.67464844 11.21484375 3.73242188 C6.96331896 4.02495798 3.20543653 3.89547939 -1 3 C-0.67 2.01 -0.34 1.02 0 0 Z " fill="#302C36" transform="translate(909,1035)"/>
<path d="M0 0 C0.99 0.66 1.98 1.32 3 2 C1.92643323 3.15498897 0.84070212 4.29867867 -0.25 5.4375 C-0.85328125 6.07558594 -1.4565625 6.71367188 -2.078125 7.37109375 C-4.10048016 9.08516306 -5.41270605 9.59358878 -8 10 C-6.34908222 5.70761377 -3.26245434 3.1206085 0 0 Z " fill="#262132" transform="translate(608,988)"/>
<path d="M0 0 C-0.99 0.66 -1.98 1.32 -3 2 C-3.598125 2.474375 -4.19625 2.94875 -4.8125 3.4375 C-7.40665668 5.29046906 -10.12711374 6.62884974 -13 8 C-13 5 -13 5 -11.3125 2.9375 C-7.63039299 -0.14750857 -4.6789979 -1.73296219 0 0 Z " fill="#1B1B21" transform="translate(1005,962)"/>
<path d="M0 0 C0.66 0.33 1.32 0.66 2 1 C1.4375 2.875 1.4375 2.875 0 5 C-3.625 6.25 -3.625 6.25 -7 7 C-7 6.34 -7 5.68 -7 5 C-8.65 5 -10.3 5 -12 5 C-12 4.67 -12 4.34 -12 4 C-10.948125 3.896875 -9.89625 3.79375 -8.8125 3.6875 C-5.09787667 3.01764989 -3.132309 1.96887994 0 0 Z " fill="#212025" transform="translate(940,1015)"/>
<path d="M0 0 C0.99 0 1.98 0 3 0 C2.125 5.75 2.125 5.75 1 8 C0.34 8 -0.32 8 -1 8 C-1.33 9.32 -1.66 10.64 -2 12 C-2.33 12 -2.66 12 -3 12 C-2.49202991 7.6822542 -1.80317221 3.96697886 0 0 Z " fill="#16141D" transform="translate(1406,1003)"/>
<path d="M0 0 C0.93134766 0.00902344 1.86269531 0.01804687 2.82226562 0.02734375 C5.1109436 0.05081737 7.39908672 0.08365271 9.6875 0.125 C9.6875 0.455 9.6875 0.785 9.6875 1.125 C0.2825 1.62 0.2825 1.62 -9.3125 2.125 C-9.6425 2.785 -9.9725 3.445 -10.3125 4.125 C-11.9625 4.125 -13.6125 4.125 -15.3125 4.125 C-15.3125 3.465 -15.3125 2.805 -15.3125 2.125 C-10.36836159 -0.51881296 -5.44449976 -0.10004028 0 0 Z " fill="#D4D7DC" transform="translate(921.3125,963.875)"/>
<path d="M0 0 C3.12270126 2.51830747 3.94523098 3.7261549 4.75 7.75 C4.8325 8.8225 4.915 9.895 5 11 C4.34 11 3.68 11 3 11 C1.35 8.03 -0.3 5.06 -2 2 C-1.34 2 -0.68 2 0 2 C0 1.34 0 0.68 0 0 Z " fill="#27242C" transform="translate(849,983)"/>
<path d="M0 0 C0.66 0.99 1.32 1.98 2 3 C1.09972412 4.03531726 0.17906965 5.05294165 -0.75 6.0625 C-1.51570312 6.91521484 -1.51570312 6.91521484 -2.296875 7.78515625 C-4 9 -4 9 -6.203125 8.68359375 C-6.79609375 8.45800781 -7.3890625 8.23242188 -8 8 C-5.33333333 5.33333333 -2.66666667 2.66666667 0 0 Z " fill="#211F2B" transform="translate(612,946)"/>
<path d="M0 0 C-0.99 0.33 -1.98 0.66 -3 1 C-2.67 1.66 -2.34 2.32 -2 3 C-5 4 -8 5 -11 6 C-11.33 4.68 -11.66 3.36 -12 2 C-10.75579353 1.4654744 -9.50429064 0.94791389 -8.25 0.4375 C-7.55390625 0.14746094 -6.8578125 -0.14257812 -6.140625 -0.44140625 C-3.69987216 -1.07831803 -2.3596345 -0.80248831 0 0 Z " fill="#26252B" transform="translate(1228,962)"/>
<path d="M0 0 C7.26 0 14.52 0 22 0 C22.66 1.32 23.32 2.64 24 4 C23.01 4.33 22.02 4.66 21 5 C20.67 4.01 20.34 3.02 20 2 C13.4 1.67 6.8 1.34 0 1 C0 0.67 0 0.34 0 0 Z " fill="#252431" transform="translate(1440,930)"/>
<path d="M0 0 C0.33 0 0.66 0 1 0 C1 2.97 1 5.94 1 9 C3.64 9.33 6.28 9.66 9 10 C9 10.33 9 10.66 9 11 C7.02 11 5.04 11 3 11 C3 11.66 3 12.32 3 13 C1.0625 12.1875 1.0625 12.1875 -1 11 C-1.33 10.01 -1.66 9.02 -2 8 C-1.34 8 -0.68 8 0 8 C0 5.36 0 2.72 0 0 Z " fill="#23232C" transform="translate(1081,1007)"/>
<path d="M0 0 C3.30528293 2.40384213 3.8376884 5.38514146 4.765625 9.16015625 C5 11 5 11 4 13 C3.34 13 2.68 13 2 13 C0.54815522 8.46298506 -0.23509196 4.81938524 0 0 Z " fill="#1F1D26" transform="translate(664,1006)"/>
<path d="M0 0 C2.33177975 0.34403308 4.66487041 0.67949202 7 1 C7 1.33 7 1.66 7 2 C2.05 2.66 -2.9 3.32 -8 4 C-7.67 2.68 -7.34 1.36 -7 0 C-4.27570107 -1.36214947 -2.96127872 -0.65806194 0 0 Z " fill="#0E0D1A" transform="translate(1274,983)"/>
<path d="M0 0 C0.66 0 1.32 0 2 0 C2.12117188 0.63808594 2.24234375 1.27617188 2.3671875 1.93359375 C2.53476563 2.75988281 2.70234375 3.58617187 2.875 4.4375 C3.03742188 5.26121094 3.19984375 6.08492187 3.3671875 6.93359375 C3.57601563 7.61550781 3.78484375 8.29742188 4 9 C4.66 9.33 5.32 9.66 6 10 C4.68 10.99 3.36 11.98 2 13 C1.01 10.03 0.02 7.06 -1 4 C-0.34 4 0.32 4 1 4 C0.67 2.68 0.34 1.36 0 0 Z " fill="#1C1B25" transform="translate(1471,952)"/>
<path d="M0 0 C2.6855594 2.6855594 3.06049974 5.37621328 4 9 C3.01 9.66 2.02 10.32 1 11 C0.67 10.01 0.34 9.02 0 8 C0.33 7.34 0.66 6.68 1 6 C-0.32 6.33 -1.64 6.66 -3 7 C-2.01 4.69 -1.02 2.38 0 0 Z " fill="#302E31" transform="translate(1449,957)"/>
<path d="M0 0 C4.95 0.33 9.9 0.66 15 1 C15 1.66 15 2.32 15 3 C4.44191344 3.3690205 4.44191344 3.3690205 0 1 C0 0.67 0 0.34 0 0 Z " fill="#0A070E" transform="translate(1074,1036)"/>
<path d="M0 0 C1.71872538 2.57808807 2.48218488 4.10424011 3.25 7 C3.44078125 7.680625 3.6315625 8.36125 3.828125 9.0625 C4 11 4 11 2 14 C1.67 12.35 1.34 10.7 1 9 C0.34 9 -0.32 9 -1 9 C-0.67 6.03 -0.34 3.06 0 0 Z " fill="#221E29" transform="translate(884,1006)"/>
<path d="M0 0 C0.66 0 1.32 0 2 0 C2.33 0.66 2.66 1.32 3 2 C6.465 1.505 6.465 1.505 10 1 C9 3 9 3 6.71484375 3.8515625 C5.34005859 4.23441406 5.34005859 4.23441406 3.9375 4.625 C3.01839844 4.88539063 2.09929688 5.14578125 1.15234375 5.4140625 C0.44207031 5.60742188 -0.26820313 5.80078125 -1 6 C-1.66 5.34 -2.32 4.68 -3 4 C-1.625 2 -1.625 2 0 0 Z " fill="#090A1E" transform="translate(694,982)"/>
<path d="M0 0 C0.99 0.33 1.98 0.66 3 1 C2.04578192 2.14926266 1.08647955 3.29430541 0.125 4.4375 C-0.40867187 5.07558594 -0.94234375 5.71367188 -1.4921875 6.37109375 C-3 8 -3 8 -5 9 C-5.3125 6.75 -5.3125 6.75 -5 4 C-2.6875 1.625 -2.6875 1.625 0 0 Z " fill="#24232E" transform="translate(601,956)"/>
<path d="M0 0 C0.66 0.33 1.32 0.66 2 1 C1.04663979 2.31611677 0.08714226 3.62778961 -0.875 4.9375 C-1.40867187 5.66839844 -1.94234375 6.39929688 -2.4921875 7.15234375 C-4 9 -4 9 -6 10 C-7.125 6.25 -7.125 6.25 -6 4 C-4.35178756 2.96986723 -2.68496298 1.96885372 -1 1 C-0.67 0.67 -0.34 0.34 0 0 Z " fill="#262531" transform="translate(624,935)"/>
<path d="M0 0 C0.66 1.32 1.32 2.64 2 4 C-0.0625 6.5 -0.0625 6.5 -3 9 C-6.8125 9.3125 -6.8125 9.3125 -10 9 C-2.5 4 -2.5 4 0 4 C0 2.68 0 1.36 0 0 Z " fill="#19181E" transform="translate(1153,1007)"/>
<path d="M0 0 C0.66 0.33 1.32 0.66 2 1 C2 4.52809907 1.35723489 5.46815512 -1 8 C-1.99 8 -2.98 8 -4 8 C-3.40072174 4.64404172 -2.15377564 2.62198774 0 0 Z " fill="#25232B" transform="translate(780,984)"/>
<path d="M0 0 C2.4375 1.125 2.4375 1.125 5 3 C5.8125 6.1875 5.8125 6.1875 6 9 C5.01 9 4.02 9 3 9 C0.75 6.75 0.75 6.75 -1 4 C-0.75 1.6875 -0.75 1.6875 0 0 Z " fill="#191825" transform="translate(587,924)"/>
<path d="M0 0 C0.33 0 0.66 0 1 0 C1 3.96 1 7.92 1 12 C0.67 10.68 0.34 9.36 0 8 C-0.66 8 -1.32 8 -2 8 C-2.33 9.32 -2.66 10.64 -3 12 C-2.67 9.03 -2.34 6.06 -2 3 C-1.34 3 -0.68 3 0 3 C0 2.01 0 1.02 0 0 Z " fill="#26232B" transform="translate(533,1018)"/>
<path d="M0 0 C1.32 0 2.64 0 4 0 C4.2475 0.61875 4.495 1.2375 4.75 1.875 C6.20628639 4.35068687 7.37812506 4.95125002 10 6 C10 6.66 10 7.32 10 8 C5.17965738 7.58682778 3.09007389 5.61980085 0 2 C0 1.34 0 0.68 0 0 Z " fill="#0B0A0D" transform="translate(688,1011)"/>
<path d="M0 0 C0.33 0 0.66 0 1 0 C1.02712066 1.43739513 1.04645067 2.87493863 1.0625 4.3125 C1.07410156 5.11300781 1.08570313 5.91351562 1.09765625 6.73828125 C1 9 1 9 0 12 C-0.99 12 -1.98 12 -3 12 C-2.49202991 7.6822542 -1.80317221 3.96697886 0 0 Z " fill="#1E1D24" transform="translate(1442,973)"/>
<path d="M0 0 C-5.32006564 3.41029848 -9.05542387 3.09644404 -15 2 C-12.03195838 0.02130559 -10.90215354 -0.34161439 -7.5 -0.6875 C-6.33984375 -0.81705078 -6.33984375 -0.81705078 -5.15625 -0.94921875 C-3 -1 -3 -1 0 0 Z " fill="#0F0F17" transform="translate(1150,1016)"/>
<path d="M0 0 C0 0.66 0 1.32 0 2 C-1.58129029 2.22331199 -3.16521089 2.42804644 -4.75 2.625 C-6.07257812 2.79902344 -6.07257812 2.79902344 -7.421875 2.9765625 C-10.22859878 3.00207817 -11.63384866 2.44843844 -14 1 C-9.27616037 0.34843591 -4.78025483 -0.11950637 0 0 Z " fill="#0C0714" transform="translate(714,1037)"/>
<path d="M0 0 C1.98 0.495 1.98 0.495 4 1 C4.625 2.8125 4.625 2.8125 5 5 C4.01 6.485 4.01 6.485 3 8 C0.9375 5.6875 0.9375 5.6875 -1 3 C-0.67 2.01 -0.34 1.02 0 0 Z " fill="#10111B" transform="translate(906,1010)"/>
<path d="M0 0 C2.31 0 4.62 0 7 0 C7.33 1.32 7.66 2.64 8 4 C5.36 4 2.72 4 0 4 C0 2.66666667 0 1.33333333 0 0 Z " fill="#2A282F" transform="translate(1224,980)"/>
<path d="M0 0 C2.6855594 2.6855594 3.06049974 5.37621328 4 9 C3.01 9.33 2.02 9.66 1 10 C0.01 7.36 -0.98 4.72 -2 2 C-1.34 1.34 -0.68 0.68 0 0 Z " fill="#211E29" transform="translate(1467,942)"/>
<path d="M0 0 C0.33 0 0.66 0 1 0 C1 4.95 1 9.9 1 15 C1.66 15 2.32 15 3 15 C3.33 16.32 3.66 17.64 4 19 C2.68 18.34 1.36 17.68 0 17 C0 11.39 0 5.78 0 0 Z " fill="#100D16" transform="translate(626,1018)"/>
<path d="M0 0 C1 3 1 3 0.00390625 5.26171875 C-0.47175781 6.06222656 -0.94742188 6.86273437 -1.4375 7.6875 C-2.14712891 8.89986328 -2.14712891 8.89986328 -2.87109375 10.13671875 C-3.24363281 10.75160156 -3.61617187 11.36648438 -4 12 C-4.66 11.67 -5.32 11.34 -6 11 C-4.54955729 6.89041233 -2.48889248 3.56741255 0 0 Z " fill="#0C0C12" transform="translate(891,975)"/>
<path d="M0 0 C3.125 -0.1875 3.125 -0.1875 6 0 C6.66 1.65 7.32 3.3 8 5 C4.7 4.34 1.4 3.68 -2 3 C-1.34 2.01 -0.68 1.02 0 0 Z " fill="#28272A" transform="translate(1240,961)"/>
<path d="M0 0 C0.99 0 1.98 0 3 0 C1.8141763 3.37503669 0.72426311 5.64722731 -2 8 C-2.99 7.67 -3.98 7.34 -5 7 C-4.360625 6.21625 -3.72125 5.4325 -3.0625 4.625 C-1.01857687 2.20460719 -1.01857687 2.20460719 0 0 Z " fill="#111116" transform="translate(720,1009)"/>
<path d="M0 0 C0.98484375 0.01804687 1.9696875 0.03609375 2.984375 0.0546875 C4.10585938 0.08949219 4.10585938 0.08949219 5.25 0.125 C5.25 0.455 5.25 0.785 5.25 1.125 C4.57453125 1.16238281 3.8990625 1.19976563 3.203125 1.23828125 C2.31109375 1.30402344 1.4190625 1.36976563 0.5 1.4375 C-0.38171875 1.49550781 -1.2634375 1.55351563 -2.171875 1.61328125 C-5.08705574 2.19190046 -6.47169878 3.27759488 -8.75 5.125 C-9.41 5.125 -10.07 5.125 -10.75 5.125 C-9.75 2.125 -9.75 2.125 -8.046875 0.9453125 C-5.24061169 -0.0569244 -2.97306264 -0.07078721 0 0 Z " fill="#434146" transform="translate(1006.75,979.875)"/>
<path d="M0 0 C0.99 0 1.98 0 3 0 C3.66 2.31 4.32 4.62 5 7 C4.01 7.33 3.02 7.66 2 8 C0.74335022 5.09399739 0 3.20395416 0 0 Z " fill="#191725" transform="translate(1462,934)"/>
<path d="M0 0 C5.53846154 0.49230769 5.53846154 0.49230769 7.875 3.0625 C8.431875 4.0215625 8.431875 4.0215625 9 5 C5.65626525 4.44271087 2.96687001 3.64826111 0 2 C0 1.34 0 0.68 0 0 Z " fill="#0F0C16" transform="translate(711,982)"/>
<path d="M0 0 C3.465 1.98 3.465 1.98 7 4 C7 4.66 7 5.32 7 6 C4.03 5.505 4.03 5.505 1 5 C0.67 3.35 0.34 1.7 0 0 Z " fill="#100F19" transform="translate(860,962)"/>
<path d="M0 0 C-1.14099526 3.42298577 -2.00085621 4.14758766 -5 6 C-5.99 6 -6.98 6 -8 6 C-6.24081631 1.94034532 -4.71412298 0 0 0 Z " fill="#0D0D12" transform="translate(783,965)"/>
<path d="M0 0 C-2.40436026 3.60654039 -3.94679607 3.85452932 -8 5 C-8 4.34 -8 3.68 -8 3 C-8.66 2.67 -9.32 2.34 -10 2 C-8.71211992 1.46987262 -7.41953322 0.9511671 -6.125 0.4375 C-5.40570312 0.14746094 -4.68640625 -0.14257812 -3.9453125 -0.44140625 C-2 -1 -2 -1 0 0 Z " fill="#1B1B20" transform="translate(791,962)"/>
<path d="M0 0 C0.99 0.33 1.98 0.66 3 1 C3 1.66 3 2.32 3 3 C0.625 4.0625 0.625 4.0625 -2 5 C-2.66 4.67 -3.32 4.34 -4 4 C-4 4.66 -4 5.32 -4 6 C-4.99 5.67 -5.98 5.34 -7 5 C-4.702779 3.25728062 -2.40133271 1.60088848 0 0 Z " fill="#241F30" transform="translate(730,1029)"/>
<path d="M0 0 C0.66 0.33 1.32 0.66 2 1 C1.24172908 2.17487036 0.46792245 3.33972592 -0.3125 4.5 C-0.74175781 5.1496875 -1.17101562 5.799375 -1.61328125 6.46875 C-2.07089844 6.9740625 -2.52851562 7.479375 -3 8 C-3.99 8 -4.98 8 -6 8 C-4.55746343 4.63408134 -2.66735273 2.48952921 0 0 Z " fill="#100E1A" transform="translate(615,981)"/>
<path d="M0 0 C-1.32 0.33 -2.64 0.66 -4 1 C-4 1.66 -4 2.32 -4 3 C-6.31 3.33 -8.62 3.66 -11 4 C-10.67 3.01 -10.34 2.02 -10 1 C-6.78548731 -0.60725635 -3.56387464 -0.05748185 0 0 Z " fill="#2A292B" transform="translate(1281,980)"/>
<path d="M0 0 C2.99324263 1.0975223 3.84610901 1.67682892 5.25 4.625 C5.4975 5.40875 5.745 6.1925 6 7 C5.01 7 4.02 7 3 7 C0 2.77777778 0 2.77777778 0 0 Z " fill="#222228" transform="translate(736,975)"/>
<path d="M0 0 C2.97 0 5.94 0 9 0 C9 0.33 9 0.66 9 1 C6.36 1 3.72 1 1 1 C1.33 1.99 1.66 2.98 2 4 C0.02 4.33 -1.96 4.66 -4 5 C-4 4.34 -4 3.68 -4 3 C-2.68 2.67 -1.36 2.34 0 2 C0 1.34 0 0.68 0 0 Z " fill="#18181F" transform="translate(691,961)"/>
<path d="M0 0 C0.33 0.66 0.66 1.32 1 2 C1.66 2 2.32 2 3 2 C2.67 3.65 2.34 5.3 2 7 C0.68 7.33 -0.64 7.66 -2 8 C-1.34 5.36 -0.68 2.72 0 0 Z " fill="#39373F" transform="translate(1438,983)"/>
<path d="M0 0 C0 0.99 0 1.98 0 3 C-1.53125 4.38671875 -1.53125 4.38671875 -3.5 5.6875 C-4.47453125 6.34298828 -4.47453125 6.34298828 -5.46875 7.01171875 C-5.9740625 7.33785156 -6.479375 7.66398438 -7 8 C-7 7.01 -7 6.02 -7 5 C-5.46875 3.61328125 -5.46875 3.61328125 -3.5 2.3125 C-2.8503125 1.87550781 -2.200625 1.43851563 -1.53125 0.98828125 C-1.0259375 0.66214844 -0.520625 0.33601562 0 0 Z " fill="#0E0F17" transform="translate(683,966)"/>
<path d="M0 0 C0.99 0.33 1.98 0.66 3 1 C1.625 2.5 1.625 2.5 0 4 C-0.66 4 -1.32 4 -2 4 C-2.66 5.32 -3.32 6.64 -4 8 C-4.33 7.01 -4.66 6.02 -5 5 C-3.35 3.35 -1.7 1.7 0 0 Z " fill="#1B1B1F" transform="translate(897,969)"/>
<path d="M0 0 C-1.75 5.75 -1.75 5.75 -4 8 C-4.33 6.02 -4.66 4.04 -5 2 C-2 0 -2 0 0 0 Z " fill="#232228" transform="translate(1450,963)"/>
<path d="M0 0 C4.6875 3.515625 4.6875 3.515625 6 5 C6 6.32 6 7.64 6 9 C5.34 9 4.68 9 4 9 C0 2.25 0 2.25 0 0 Z " fill="#1F1D29" transform="translate(672,1023)"/>
<path d="M0 0 C0.99 0 1.98 0 3 0 C2.65120368 3.25543229 1.97866739 4.01873107 -0.5625 6.25 C-1.366875 6.8275 -2.17125 7.405 -3 8 C-1.125 2.25 -1.125 2.25 0 0 Z " fill="#1E1D2C" transform="translate(617,978)"/>
<path d="M0 0 C0.33 0.99 0.66 1.98 1 3 C-2.75 6 -2.75 6 -5 6 C-4.75 4.125 -4.75 4.125 -4 2 C-1.9375 0.75 -1.9375 0.75 0 0 Z " fill="#0A0A11" transform="translate(1216,965)"/>
<path d="M0 0 C0.99 0.33 1.98 0.66 3 1 C3 1.99 3 2.98 3 4 C1.35 4.66 -0.3 5.32 -2 6 C-1.125 1.125 -1.125 1.125 0 0 Z " fill="#121221" transform="translate(615,942)"/>
<path d="M0 0 C0.66 0.66 1.32 1.32 2 2 C1 3 1 3 -0.84765625 3.09765625 C-2.8984375 3.06510417 -4.94921875 3.03255208 -7 3 C-7 2.34 -7 1.68 -7 1 C-3.625 0.375 -3.625 0.375 0 0 Z " fill="#09080B" transform="translate(1091,1017)"/>
<path d="M0 0 C1.2077558 3.62326739 0.54311128 4.64146369 -1 8 C-0.34 8.33 0.32 8.66 1 9 C0.34 9.66 -0.32 10.32 -1 11 C-1.66 10.67 -2.32 10.34 -3 10 C-2.01 6.7 -1.02 3.4 0 0 Z " fill="#211F2A" transform="translate(1410,993)"/>
<path d="M0 0 C0.6875 1.6875 0.6875 1.6875 1 4 C-0.4375 6.75 -0.4375 6.75 -2 9 C-2.33 8.34 -2.66 7.68 -3 7 C-2.67 6.34 -2.34 5.68 -2 5 C-2.66 4.67 -3.32 4.34 -4 4 C-2.68 2.68 -1.36 1.36 0 0 Z " fill="#24242F" transform="translate(692,983)"/>
<path d="M0 0 C1.32 1.32 2.64 2.64 4 4 C3.01 4.495 3.01 4.495 2 5 C1.67 5.66 1.34 6.32 1 7 C0.01 5.35 -0.98 3.7 -2 2 C-1.34 2 -0.68 2 0 2 C0 1.34 0 0.68 0 0 Z " fill="#232128" transform="translate(1285,983)"/>
<path d="M0 0 C2.39763185 2.39763185 2.34280586 3.33273498 2.625 6.625 C2.69976563 7.44226563 2.77453125 8.25953125 2.8515625 9.1015625 C2.90054688 9.72804688 2.94953125 10.35453125 3 11 C1 10 1 10 0 7 C-0.03954234 4.66700175 -0.04401732 2.33291811 0 0 Z " fill="#100D13" transform="translate(873,979)"/>
<path d="M0 0 C2.97 0 5.94 0 9 0 C9 0.99 9 1.98 9 3 C6.1875 3.1875 6.1875 3.1875 3 3 C2.01 2.01 1.02 1.02 0 0 Z " fill="#413F43" transform="translate(837,980)"/>
<path d="M0 0 C-6.75 4 -6.75 4 -9 4 C-9 3.01 -9 2.02 -9 1 C-5.57367167 -0.61798838 -3.61944899 -1.34053666 0 0 Z " fill="#E4E4E7" transform="translate(697,965)"/>
<path d="M0 0 C-1.49097658 3.7952131 -3.75700849 5.61042731 -7 8 C-7 5 -7 5 -4.625 2.3125 C-2 0 -2 0 0 0 Z " fill="#0F0F18" transform="translate(596,963)"/>
<path d="M0 0 C0.99 0 1.98 0 3 0 C3.33 0.99 3.66 1.98 4 3 C2.68 3.99 1.36 4.98 0 6 C-1.125 2.25 -1.125 2.25 0 0 Z " fill="#1E1D2D" transform="translate(643,916)"/>
<path d="M0 0 C2.5 1.3125 2.5 1.3125 5 3 C5 3.99 5 4.98 5 6 C3.0625 5.25 3.0625 5.25 1 4 C0.25 1.875 0.25 1.875 0 0 Z " fill="#221831" transform="translate(581,996)"/>
<path d="M0 0 C0.99 0.33 1.98 0.66 3 1 C3 1.66 3 2.32 3 3 C3.66 3.33 4.32 3.66 5 4 C3.35 4.66 1.7 5.32 0 6 C0 4.02 0 2.04 0 0 Z " fill="#4B4B54" transform="translate(772,968)"/>
<path d="M0 0 C0.33 0 0.66 0 1 0 C0.67 3.96 0.34 7.92 0 12 C-0.33 12 -0.66 12 -1 12 C-2.42857143 3.42857143 -2.42857143 3.42857143 0 0 Z " fill="#38363B" transform="translate(548,942)"/>
</svg>
